<svg width="16" height="16" viewBox="0 0 16 16" xmlns="http://www.w3.org/2000/svg">
    <path d="m8 9.287-6.437 6.437A.882.882 0 0 1 .92 16a.882.882 0 0 1-.644-.276A.882.882 0 0 1 0 15.08c0-.245.092-.46.276-.643L6.713 8 .276 1.563A.882.882 0 0 1 0 .92C0 .674.092.46.276.276A.882.882 0 0 1 .92 0c.245 0 .46.092.643.276L8 6.713 14.437.276A.882.882 0 0 1 15.08 0c.246 0 .46.092.644.276A.882.882 0 0 1 16 .92c0 .245-.092.46-.276.643L9.287 8l6.437 6.437a.882.882 0 0 1 .276.643c0 .246-.092.46-.276.644a.882.882 0 0 1-.644.276.882.882 0 0 1-.643-.276L8 9.287z" fill="#FFF" fill-rule="nonzero"/>
</svg>
