<svg width="86" height="30" viewBox="0 0 86 30" fill="none" xmlns="http://www.w3.org/2000/svg">
<path fill-rule="evenodd" clip-rule="evenodd" d="M4.68214 9.31627C5.5143 8.99621 6.43181 8.82551 7.43467 8.82551C8.18148 8.82551 8.90695 8.91086 9.58975 9.10289C10.2725 9.27359 10.8913 9.57232 11.4674 9.97773C12.0436 10.3831 12.5556 10.9166 13.0037 11.578V3.21376C13.0037 3.02173 13.1104 2.91504 13.3025 2.91504H14.284C14.476 2.91504 14.5827 3.00039 14.5827 3.21376V15.9735C14.5827 17.1044 14.412 18.1073 14.0493 19.0035C13.7079 19.8996 13.1958 20.6678 12.5556 21.2866C11.9155 21.9054 11.1687 22.3748 10.3152 22.7162C9.46172 23.0362 8.54421 23.2069 7.54135 23.2069C6.55983 23.2069 5.62098 23.0362 4.76749 22.6948C3.91399 22.3534 3.16718 21.8627 2.52706 21.2439C1.88693 20.6251 1.39617 19.857 1.03344 18.9821C0.692037 18.1073 0.5 17.1044 0.5 16.0162C0.5 14.9067 0.670699 13.9038 1.03344 13.0076C1.37483 12.1115 1.8656 11.3647 2.48438 10.7459C3.10317 10.1271 3.82864 9.63633 4.68214 9.31627ZM4.63946 20.9665C5.45028 21.4359 6.43181 21.692 7.56269 21.692C8.69357 21.692 9.6751 21.4359 10.4859 20.9665C11.2967 20.4971 11.9155 19.8356 12.3423 18.9821C12.7904 18.1286 13.0037 17.1471 13.0037 16.0376C12.9824 14.864 12.769 13.8398 12.3423 12.9863C11.9155 12.1328 11.2967 11.4713 10.4859 11.0019C9.6751 10.5325 8.69357 10.2978 7.56269 10.2978C6.41047 10.2978 5.45028 10.5325 4.63946 11.0019C3.82864 11.4713 3.20985 12.1328 2.78311 12.9863C2.33502 13.8398 2.12164 14.864 2.12164 16.0376C2.12164 17.1471 2.35636 18.1286 2.78311 18.9821C3.20985 19.8143 3.82864 20.4757 4.63946 20.9665Z" fill="#F2F2F2"/>
<path fill-rule="evenodd" clip-rule="evenodd" d="M19.7677 9.27353C20.6212 8.9748 21.5387 8.82544 22.5416 8.82544C23.5444 8.82544 24.4619 8.9748 25.3154 9.27353C26.1689 9.57225 26.9157 10.0417 27.5559 10.6391C28.196 11.2579 28.6867 12.0047 29.0495 12.9009C29.3909 13.7971 29.5829 14.8426 29.5829 16.0162C29.5829 17.1897 29.4122 18.2352 29.0495 19.1314C28.6867 20.0276 28.196 20.7957 27.5559 21.3932C26.9157 22.012 26.1689 22.4601 25.3154 22.7588C24.4619 23.0788 23.5444 23.2282 22.5416 23.2282C21.56 23.2282 20.6212 23.0788 19.7677 22.7588C18.9142 22.4601 18.1674 21.9906 17.5273 21.3932C16.8871 20.7744 16.3964 20.0276 16.0336 19.1314C15.6923 18.2352 15.5002 17.1897 15.5002 16.0162C15.5002 14.8426 15.6709 13.7971 16.0336 12.9009C16.3964 12.0047 16.8871 11.2366 17.5273 10.6391C18.1674 10.0417 18.9142 9.59359 19.7677 9.27353ZM19.6183 21.0305C20.4292 21.4999 21.4107 21.7346 22.5416 21.7346C23.6725 21.7132 24.654 21.4785 25.4648 21.0305C26.2756 20.561 26.8944 19.9209 27.3212 19.0674C27.7479 18.2139 27.9613 17.1897 27.9613 16.0162C27.9613 14.8213 27.7479 13.8184 27.3212 12.9649C26.8944 12.1114 26.2756 11.4499 25.4648 11.0019C24.654 10.5324 23.6725 10.2977 22.5416 10.2977C21.4107 10.3191 20.4292 10.5538 19.6183 11.0019C18.8075 11.4499 18.1887 12.1114 17.762 12.9649C17.3139 13.8184 17.1005 14.8426 17.1005 16.0162C17.1005 17.2111 17.3352 18.2139 17.762 19.0674C18.1887 19.9209 18.8075 20.5824 19.6183 21.0305Z" fill="#F2F2F2"/>
<path fill-rule="evenodd" clip-rule="evenodd" d="M34.5545 9.46573C35.4934 9.03898 36.5389 8.8256 37.6698 8.8256C38.6727 8.8256 39.5902 8.9963 40.401 9.31637C41.2545 9.65776 41.98 10.1272 42.5988 10.746C43.2175 11.3648 43.7083 12.1116 44.0497 13.0077C44.3698 13.8826 44.5618 14.9068 44.5618 16.0163C44.5618 17.1045 44.3911 18.1074 44.0284 18.9822C43.687 19.8571 43.1749 20.6252 42.5347 21.244C41.8946 21.8841 41.1478 22.3535 40.2943 22.6949C39.4408 23.0363 38.5233 23.207 37.5204 23.207C36.5389 23.207 35.6001 23.0363 34.7466 22.7163C33.8931 22.3962 33.1463 21.9055 32.5062 21.2867C31.866 20.6465 31.3753 19.8997 31.0125 19.0036C30.6711 18.1074 30.4791 17.0832 30.4791 15.9736V3.19252C30.4791 3.00049 30.5644 2.8938 30.7778 2.8938H31.802C31.9941 2.8938 32.1007 2.97915 32.1007 3.19252V11.5355C32.8049 10.5966 33.6157 9.89248 34.5545 9.46573ZM34.6186 20.9666C35.4294 21.436 36.4109 21.6921 37.5418 21.6921C38.6727 21.6921 39.6329 21.436 40.465 20.9666C41.2758 20.4972 41.8946 19.8357 42.3214 18.9822C42.7695 18.1287 42.9828 17.1472 42.9828 16.0377C42.9615 14.8641 42.7481 13.8399 42.3214 12.9864C41.8946 12.1329 41.2758 11.4714 40.465 11.002C39.6542 10.5326 38.6727 10.2979 37.5418 10.2979C36.4109 10.2979 35.4294 10.5326 34.6186 11.002C33.8077 11.4714 33.1889 12.1329 32.7622 12.9864C32.3141 13.8399 32.1007 14.8641 32.1007 16.0377C32.1221 17.1472 32.3355 18.1287 32.7622 18.9822C33.1889 19.8144 33.8077 20.4758 34.6186 20.9666Z" fill="#F2F2F2"/>
<path fill-rule="evenodd" clip-rule="evenodd" d="M51.1977 8.95346C51.6458 8.86811 52.1366 8.82544 52.6487 8.82544C53.1608 8.82544 53.6302 8.86811 54.0783 8.95346C54.5264 9.01748 54.9745 9.1455 55.4012 9.29486C56.2547 9.63626 57.0015 10.1057 57.6416 10.7245C57.9617 11.0232 58.2391 11.3646 58.4951 11.7487C58.7512 12.1327 58.9646 12.5595 59.1353 13.0076C59.306 13.4557 59.434 13.9251 59.5407 14.4372C59.6474 14.9493 59.69 15.4827 59.69 16.0588V22.5027C59.69 22.6948 59.6047 22.8015 59.3913 22.8015H58.3671C58.1751 22.8015 58.0684 22.7161 58.0684 22.5027V20.2623C57.8764 20.6037 57.6416 20.9024 57.3856 21.1798C57.1295 21.4572 56.8308 21.7132 56.5321 21.9266C56.2334 22.1613 55.9347 22.3534 55.6146 22.5027C55.2945 22.6521 54.9531 22.7801 54.5904 22.8868C54.249 22.9935 53.8863 23.0788 53.5235 23.1429C53.1394 23.2069 52.7554 23.2282 52.3713 23.2282C51.8592 23.2282 51.3471 23.1855 50.8777 23.0788C50.4083 22.9722 49.9602 22.8441 49.5334 22.6521C49.1067 22.4814 48.7226 22.2467 48.3812 21.9906C48.0185 21.7346 47.6984 21.4359 47.3997 21.0945C47.101 20.7744 46.8236 20.4117 46.6102 20.0276C46.3968 19.6435 46.2048 19.2381 46.0554 18.8114C45.9061 18.3846 45.7994 17.9152 45.714 17.4671C45.6287 16.9977 45.586 16.5283 45.586 16.0375C45.586 15.4827 45.6287 14.9706 45.7354 14.4585C45.842 13.9678 45.9701 13.4983 46.1408 13.0503C46.3115 12.6235 46.5248 12.1968 46.7809 11.834C47.0156 11.4499 47.3143 11.1085 47.6344 10.8098C47.9545 10.4684 48.2959 10.191 48.6799 9.95632C49.064 9.72161 49.4481 9.50824 49.8748 9.33754C50.3016 9.16684 50.7283 9.03881 51.1977 8.95346ZM51.0697 21.5852C51.5391 21.6919 52.0726 21.7559 52.6487 21.7559C53.2248 21.7559 53.7369 21.6919 54.249 21.6066C54.7184 21.4785 55.1665 21.3078 55.5719 21.0731C55.9773 20.8384 56.3187 20.561 56.6388 20.2196C56.9375 19.8782 57.2149 19.4942 57.4283 19.0674C57.663 18.662 57.8123 18.1926 57.919 17.6805C58.0257 17.1684 58.0684 16.6349 58.0684 16.0588C58.0684 15.4827 58.0257 14.9493 57.919 14.4585C57.8337 13.9464 57.6843 13.4983 57.4709 13.0716C57.2576 12.6448 57.0015 12.2608 56.7028 11.9407C56.4041 11.5993 56.0413 11.3219 55.6359 11.0872C55.2305 10.8525 54.7824 10.6818 54.2917 10.5538C53.7796 10.4471 53.2461 10.3831 52.6487 10.3831C52.0726 10.3831 51.5605 10.4257 51.0697 10.5538C50.579 10.6605 50.1309 10.8525 49.7255 11.0872C49.32 11.3433 48.9787 11.642 48.6586 11.962C48.3599 12.3034 48.0825 12.6662 47.8691 13.0929C47.6344 13.4983 47.485 13.9678 47.3783 14.4585C47.2717 14.9493 47.229 15.4827 47.229 16.0375C47.229 16.6136 47.2717 17.147 47.3783 17.6591C47.485 18.1499 47.6557 18.6193 47.8691 19.0461C48.0825 19.4728 48.3599 19.8569 48.6586 20.1983C48.9573 20.5184 49.32 20.8171 49.7255 21.0518C50.1522 21.2865 50.579 21.4572 51.0697 21.5852Z" fill="#F2F2F2"/>
<path d="M82.265 3.23525C82.265 3.02187 82.1584 2.93652 81.9663 2.93652H80.9421C80.7288 2.93652 80.6434 3.04321 80.6434 3.23525V22.5029C80.6434 22.7163 80.7501 22.8017 80.9421 22.8017H81.9663C82.1797 22.8017 82.265 22.695 82.265 22.5029V3.23525Z" fill="#F2F2F2"/>
<path fill-rule="evenodd" clip-rule="evenodd" d="M69.5266 9.3162C70.3801 8.99614 71.2976 8.82544 72.3005 8.82544C73.3033 8.82544 74.2208 8.99614 75.0957 9.35888C75.9492 9.70027 76.696 10.191 77.3361 10.8098C77.9762 11.4286 78.467 12.1968 78.8297 13.0716C79.1711 13.9464 79.3632 14.9493 79.3632 16.0375C79.3632 17.147 79.1925 18.1499 78.8511 19.0461C78.5097 19.9422 78.0189 20.6891 77.4001 21.3078C76.7813 21.9266 76.0559 22.4174 75.2024 22.7374C74.3702 23.0575 73.4527 23.2282 72.4498 23.2282C71.3189 23.2282 70.2734 23.0148 69.3346 22.5881C68.3957 22.1613 67.5849 21.4572 66.8808 20.5184L66.9448 27.389C66.9448 27.581 66.8594 27.6877 66.646 27.6877H65.6218C65.4298 27.6877 65.3231 27.6024 65.3231 27.389L65.2591 16.0588C65.2378 14.9279 65.4298 13.9251 65.7925 13.0289C66.1553 12.1327 66.646 11.3646 67.2862 10.7458C67.9263 10.127 68.6731 9.6576 69.5266 9.3162ZM69.3772 21.0518C70.1881 21.5212 71.1696 21.7559 72.3005 21.7559C73.4313 21.7559 74.4129 21.5212 75.2237 21.0518C76.0345 20.5824 76.6533 19.9209 77.0801 19.0674C77.5281 18.2139 77.7415 17.1897 77.7415 16.0162C77.7202 14.9066 77.5068 13.9251 77.0801 13.0716C76.6533 12.2394 76.0345 11.578 75.2237 11.0872C74.4129 10.6178 73.4313 10.3617 72.3005 10.3617C71.1696 10.3617 70.1881 10.5964 69.3772 11.0872C68.5664 11.5566 67.9476 12.2181 67.5209 13.0716C67.0728 13.9251 66.8594 14.9066 66.8594 16.0162C66.8808 17.1897 67.0941 18.2139 67.5209 19.0674C67.9476 19.9209 68.5664 20.5824 69.3772 21.0518Z" fill="#F2F2F2"/>
<path d="M60.9063 21.3932C60.9063 21.5212 60.9276 21.6706 60.949 21.7986C60.9916 21.9266 61.0343 22.0546 61.0983 22.1827C61.1623 22.3107 61.2477 22.4174 61.3544 22.5027C61.4611 22.5881 61.5677 22.6734 61.6744 22.7588C61.8025 22.8441 61.9305 22.9081 62.0585 22.9295C62.1865 22.9721 62.3359 22.9935 62.4853 22.9935C62.6346 22.9935 62.784 22.9721 62.912 22.9295C63.04 22.8868 63.1467 22.8441 63.2747 22.7588C63.4028 22.6948 63.5094 22.6094 63.5948 22.5027C63.7015 22.396 63.7655 22.2894 63.8508 22.1827C63.9362 22.0546 64.0002 21.948 64.0215 21.7986C64.0642 21.6706 64.0856 21.5425 64.0856 21.3932C64.0856 21.2438 64.0642 21.0945 64.0215 20.9664C63.9789 20.8384 63.9149 20.7104 63.8508 20.5824C63.7868 20.4543 63.7015 20.3476 63.5948 20.2623C63.4881 20.1556 63.3814 20.0916 63.2747 20.0062C63.1467 19.9422 63.04 19.8782 62.912 19.8569C62.784 19.8142 62.656 19.8142 62.4853 19.8142C62.2505 19.8142 62.0372 19.8569 61.8451 19.9422C61.6531 20.0276 61.4824 20.1343 61.333 20.2623C61.205 20.4117 61.0983 20.5824 61.013 20.7744C60.949 20.9238 60.9063 21.1585 60.9063 21.3932Z" fill="#F2F2F2"/>
<path d="M22.0081 11.6848C22.0081 11.4927 22.1575 11.322 22.3495 11.322C22.5416 11.322 22.7123 11.4714 22.7123 11.6634L22.7549 16.1016C22.7549 16.2936 22.6056 16.4643 22.4135 16.4643C22.2002 16.4857 22.0508 16.3363 22.0508 16.1229L22.0081 11.6848Z" fill="#F2F2F2"/>
<path d="M24.526 14.3306C24.6753 14.2239 24.91 14.2452 25.0167 14.4159C25.1234 14.5653 25.1021 14.8 24.9314 14.9067L22.6056 16.5924C22.4562 16.699 22.2215 16.6777 22.1148 16.507C22.0081 16.3576 22.0295 16.1229 22.2002 16.0162L24.526 14.3306Z" fill="#F2F2F2"/>
</svg>
