<svg width="20" height="12" viewBox="0 0 20 12" xmlns="http://www.w3.org/2000/svg">
    <path d="M10 12c-.185 0-.363-.034-.533-.101a1.346 1.346 0 0 1-.488-.35L.303 2.18c-.216-.234-.317-.534-.301-.902C.017.911.133.611.349.377.597.11.875-.015 1.184 0c.31.017.573.158.79.426L10 9.043 18.027.377c.216-.2.487-.31.812-.326.325-.017.595.108.812.376.247.233.363.526.348.877-.016.35-.132.642-.348.876l-8.63 9.37a1.346 1.346 0 0 1-.488.349c-.17.067-.347.101-.533.101z" fill="#ebab47" fill-rule="nonzero"/>
</svg>
