<svg width="160" height="24" viewBox="0 0 160 24" fill="none" xmlns="http://www.w3.org/2000/svg">
<mask id="mask0_3_1486" style="mask-type:luminance" maskUnits="userSpaceOnUse" x="0" y="0" width="160" height="24">
<rect width="160" height="24" fill="white"/>
</mask>
<g mask="url(#mask0_3_1486)">
<path d="M28.0002 19.723V4.27763H30.9489V17.0908H38.6837V19.723H28.0002Z" fill="#14B6AC"/>
<path d="M51.0123 17.0908V19.723H40.4785V4.27763H50.82V6.90987H43.4271V10.6298H49.8158V13.0663H43.4271V17.0908H51.0123Z" fill="#14B6AC"/>
<path d="M65.6913 19.723V9.4986L61.7812 17.1125H60.1787L56.2685 9.4986V19.723H53.3199V4.27763H56.4822L60.9692 13.0663L65.499 4.27763H68.6399V19.723H65.6913Z" fill="#14B6AC"/>
<path fill-rule="evenodd" clip-rule="evenodd" d="M78.7251 4.27759H76.1183L70.3279 19.723H73.362L74.7509 15.8725H80.0498L81.46 19.723H84.4941L78.7251 4.27759ZM77.4217 7.69298L79.5157 13.7624H75.2423L77.4217 7.69298Z" fill="#14B6AC"/>
<path d="M97.98 17.3083C96.479 18.9834 94.7604 19.8318 92.7808 19.8318C91.7366 19.8318 90.7577 19.6142 89.8875 19.1574C88.9738 18.7006 88.2124 18.1132 87.5816 17.3736C86.9507 16.6339 86.4504 15.7855 86.0805 14.8501C85.7107 13.9147 85.5367 12.9575 85.5367 11.9786C85.5367 10.9561 85.7107 9.97719 86.0805 9.04177C86.4286 8.10635 86.929 7.25794 87.5598 6.54005C88.1907 5.82217 88.9303 5.23481 89.8005 4.79973C90.6706 4.3864 91.6278 4.16886 92.6503 4.16886C93.4116 4.16886 94.1078 4.25588 94.7386 4.40815C95.3478 4.58219 95.8916 4.82148 96.3919 5.10428C96.8705 5.40884 97.2839 5.75691 97.6537 6.17023C98.0017 6.58356 98.3063 7.0404 98.5456 7.54074L97.6319 8.08459C97.1098 7.06215 96.4137 6.32251 95.5653 5.86568C94.6951 5.40884 93.7162 5.1913 92.6285 5.1913C91.7148 5.1913 90.8882 5.38709 90.1485 5.77866C89.4089 6.17023 88.778 6.69233 88.2559 7.3232C87.7338 7.95407 87.3423 8.6937 87.0595 9.4986C86.7767 10.3035 86.6461 11.1519 86.6461 12.0003C86.6461 12.914 86.7984 13.7842 87.1247 14.5891C87.451 15.4157 87.8861 16.1336 88.4517 16.7645C88.9956 17.3953 89.6482 17.8739 90.4096 18.2437C91.171 18.6136 91.9759 18.8093 92.846 18.8093C93.7815 18.8093 94.6734 18.5918 95.5435 18.1567C96.3919 17.7216 97.1968 17.0255 97.98 16.0901V13.1098H94.4776V12.2179H98.9372V19.723H97.98V17.3083Z" fill="#98155C"/>
<path fill-rule="evenodd" clip-rule="evenodd" d="M102.2 4.27759V19.723H103.31V13.8929H108.313L112.055 19.723H113.338L109.488 13.7189C110.032 13.6318 110.51 13.4578 110.967 13.175C111.424 12.8922 111.794 12.5441 112.12 12.1308C112.446 11.7175 112.686 11.2389 112.86 10.695C113.034 10.1729 113.121 9.62909 113.121 9.06348C113.121 8.47612 113.012 7.91052 112.794 7.32316C112.555 6.75755 112.25 6.25721 111.859 5.77862C111.446 5.32178 110.967 4.97372 110.423 4.69092C109.879 4.40811 109.27 4.27759 108.618 4.27759H102.2ZM108.726 12.8704H103.31V5.27827H108.574C109.053 5.27827 109.488 5.38704 109.923 5.58283C110.336 5.80037 110.684 6.08317 111.01 6.43124C111.315 6.7793 111.554 7.19263 111.75 7.62771C111.924 8.08455 112.011 8.56314 112.011 9.06348C112.011 9.54207 111.946 9.99891 111.794 10.4557C111.641 10.9126 111.402 11.3259 111.119 11.674C110.836 12.0438 110.488 12.3266 110.075 12.5441C109.662 12.7617 109.227 12.8704 108.726 12.8704Z" fill="#98155C"/>
<path fill-rule="evenodd" clip-rule="evenodd" d="M119.539 19.1575C120.431 19.6143 121.409 19.8319 122.475 19.8319C123.498 19.8319 124.455 19.6143 125.347 19.1792C126.239 18.7659 127 18.1786 127.653 17.4607C128.284 16.7645 128.806 15.9161 129.176 14.9807C129.524 14.0453 129.719 13.0446 129.719 12.0004C129.719 11.0432 129.545 10.1078 129.197 9.15063C128.849 8.2152 128.371 7.38855 127.74 6.64891C127.109 5.90927 126.348 5.30016 125.456 4.84332C124.542 4.38649 123.563 4.16895 122.497 4.16895C121.475 4.16895 120.518 4.38649 119.626 4.79981C118.734 5.23489 117.972 5.82225 117.341 6.54014C116.689 7.25802 116.189 8.10643 115.819 9.04186C115.449 9.97728 115.253 10.978 115.253 12.0004C115.253 12.9793 115.427 13.9583 115.775 14.8937C116.123 15.8291 116.624 16.6775 117.254 17.3954C117.885 18.1133 118.647 18.7007 119.539 19.1575ZM116.819 14.5456C116.515 13.7407 116.363 12.8923 116.363 12.0004C116.363 11.152 116.515 10.3253 116.798 9.52044C117.08 8.71554 117.494 7.97591 118.038 7.32328C118.581 6.69242 119.212 6.17032 119.974 5.77875C120.735 5.38717 121.562 5.19139 122.497 5.19139C123.389 5.19139 124.194 5.38717 124.934 5.75699C125.673 6.12681 126.326 6.62715 126.87 7.25802C127.414 7.88889 127.827 8.62853 128.131 9.43343C128.436 10.2601 128.588 11.1085 128.588 12.0004C128.588 12.8488 128.436 13.6755 128.153 14.4804C127.87 15.2853 127.457 16.0249 126.935 16.6558C126.391 17.3084 125.76 17.8305 125.021 18.2221C124.259 18.6136 123.433 18.8094 122.497 18.8094C121.605 18.8094 120.779 18.6136 120.017 18.2438C119.256 17.874 118.625 17.3519 118.081 16.721C117.537 16.0902 117.102 15.3723 116.819 14.5456Z" fill="#98155C"/>
<path d="M138.899 18.8094C139.943 18.8094 140.813 18.6136 141.509 18.222C142.184 17.8305 142.728 17.3084 143.141 16.6775C143.532 16.0466 143.815 15.307 143.989 14.5021C144.142 13.6972 144.229 12.8705 144.229 12.0439V4.27769H145.338V12.0439C145.338 13.0663 145.229 14.067 145.012 15.0024C144.772 15.9379 144.403 16.7863 143.902 17.4824C143.402 18.2003 142.728 18.7876 141.923 19.201C141.118 19.6143 140.117 19.8318 138.921 19.8318C137.681 19.8318 136.658 19.6143 135.832 19.1575C135.005 18.7224 134.331 18.135 133.852 17.3954C133.352 16.6775 132.982 15.8508 132.786 14.9154C132.568 13.98 132.46 13.0228 132.46 12.0439V4.27769H133.569V12.0439C133.569 12.8923 133.656 13.7407 133.83 14.5456C133.982 15.3505 134.287 16.0901 134.7 16.6993C135.114 17.3301 135.658 17.8522 136.332 18.222C137.006 18.6136 137.876 18.8094 138.899 18.8094Z" fill="#98155C"/>
<path fill-rule="evenodd" clip-rule="evenodd" d="M149.145 4.27759V19.723H150.255V13.8929H155.628C156.281 13.8929 156.868 13.7624 157.412 13.4796C157.956 13.2185 158.413 12.8704 158.804 12.4136C159.174 11.9568 159.479 11.4564 159.696 10.8691C159.892 10.2817 160.001 9.69435 160.001 9.06348C160.001 8.47612 159.892 7.91052 159.674 7.32316C159.435 6.75755 159.131 6.25721 158.739 5.77862C158.326 5.32178 157.847 4.97372 157.303 4.69092C156.759 4.40811 156.15 4.27759 155.498 4.27759H149.145ZM155.585 12.8704H150.255V5.27827H155.454C155.911 5.27827 156.368 5.38704 156.781 5.58283C157.194 5.77862 157.542 6.06142 157.869 6.40949C158.173 6.75755 158.413 7.14912 158.608 7.60596C158.782 8.06279 158.869 8.56314 158.869 9.06348C158.869 9.56383 158.804 10.0207 158.652 10.4775C158.5 10.9343 158.282 11.3477 157.999 11.6957C157.716 12.0655 157.368 12.3483 156.955 12.5441C156.542 12.7617 156.085 12.8704 155.585 12.8704Z" fill="#98155C"/>
<path fill-rule="evenodd" clip-rule="evenodd" d="M5.99937 6.00008L3.17584 8.82361C2.98102 9.01844 2.98136 9.33502 3.17645 9.53011C3.37161 9.72527 3.68812 9.72554 3.88295 9.53072L6.70648 6.70719C6.90123 6.51244 6.90103 6.19586 6.70586 6.00069C6.51077 5.8056 6.19412 5.80533 5.99937 6.00008Z" fill="#14B6AC"/>
<path fill-rule="evenodd" clip-rule="evenodd" d="M20.1401 14.4476L17.3165 17.2711C17.1217 17.4659 17.122 17.7825 17.3171 17.9776C17.5123 18.1728 17.8288 18.1731 18.0236 17.9782L20.8472 15.1547C21.0419 14.9599 21.0417 14.6434 20.8466 14.4482C20.6515 14.2531 20.3348 14.2528 20.1401 14.4476Z" fill="#14B6AC"/>
<path fill-rule="evenodd" clip-rule="evenodd" d="M8.82287 9.53099L14.4699 15.178C14.6647 15.3729 14.9813 15.3725 15.1764 15.1774C15.3716 14.9823 15.3718 14.6658 15.177 14.4709L9.52997 8.82389C9.33515 8.62906 9.01864 8.62934 8.82348 8.8245C8.62839 9.01959 8.62804 9.33617 8.82287 9.53099Z" fill="#98155C"/>
<path fill-rule="evenodd" clip-rule="evenodd" d="M5.6471 6.35281L9.17652 9.88223L15.5294 3.5293L12 -0.000121294L5.6471 6.35281ZM9.17652 8.47046L7.05886 6.35281L12 1.41164L14.1177 3.52929L9.17652 8.47046Z" fill="#14B6AC"/>
<path fill-rule="evenodd" clip-rule="evenodd" d="M16.9411 12L20.4705 15.5294L23.9999 12L20.4705 8.47058L16.9411 12ZM20.4705 14.1176L18.3529 12L20.4705 9.88235L22.5882 12L20.4705 14.1176Z" fill="#98155C"/>
<path fill-rule="evenodd" clip-rule="evenodd" d="M11.2941 6.35303L14.8235 9.88244L18.3529 6.35303L14.8235 2.82361L11.2941 6.35303ZM14.8235 8.47068L12.7059 6.35303L14.8235 4.23538L16.9412 6.35303L14.8235 8.47068Z" fill="#98155C"/>
<path fill-rule="evenodd" clip-rule="evenodd" d="M8.47059 20.4707L12 24.0001L18.3529 17.6472L14.8235 14.1178L8.47059 20.4707ZM12 22.5884L9.88235 20.4707L14.8235 15.5296L16.9412 17.6472L12 22.5884Z" fill="#14B6AC"/>
<path fill-rule="evenodd" clip-rule="evenodd" d="M3.23805e-06 12L3.52942 15.5294L7.05884 12L3.52942 8.47058L3.23805e-06 12ZM3.52942 14.1176L1.41177 12L3.52942 9.88235L5.64707 12L3.52942 14.1176Z" fill="#98155C"/>
<path fill-rule="evenodd" clip-rule="evenodd" d="M5.64701 17.6472L9.17642 21.1766L12.7058 17.6472L9.17642 14.1178L5.64701 17.6472ZM9.17642 19.7649L7.05877 17.6472L9.17642 15.5296L11.2941 17.6472L9.17642 19.7649Z" fill="#98155C"/>
</g>
</svg>
