<svg width="165" height="16" viewBox="0 0 165 16" fill="none" xmlns="http://www.w3.org/2000/svg">
<path fill-rule="evenodd" clip-rule="evenodd" d="M0.924011 4.23599V12H2.52001V9.13199H5.53201C6.03601 9.13199 6.42201 9.16399 6.69001 9.22799C6.95801 9.29199 7.14401 9.40599 7.24801 9.56999C7.35201 9.73399 7.40401 9.96399 7.40401 10.26V12H9.00001V10.152C9.00001 9.71999 8.91001 9.39399 8.73001 9.17399C8.55001 8.95399 8.28001 8.80199 7.92001 8.71799C7.71907 8.6711 7.48696 8.63606 7.2237 8.61285C7.37226 8.58658 7.51636 8.55362 7.65601 8.51399C7.95201 8.42999 8.21401 8.30799 8.44201 8.14799C8.67001 7.98799 8.84801 7.77999 8.97601 7.52399C9.10401 7.26799 9.16801 6.95599 9.16801 6.58799C9.16801 6.04399 9.04401 5.59799 8.79601 5.24999C8.54801 4.90199 8.20201 4.64599 7.75801 4.48199C7.31401 4.31799 6.79201 4.23599 6.19201 4.23599H0.924011ZM6.19201 7.88399H2.52001V5.60399H6.19201C6.64001 5.60399 6.98201 5.69599 7.21801 5.87999C7.45401 6.06399 7.57201 6.33199 7.57201 6.68399C7.57201 7.05199 7.45401 7.34399 7.21801 7.55999C6.98201 7.77599 6.64001 7.88399 6.19201 7.88399Z" fill="#F2F2F2"/>
<path fill-rule="evenodd" clip-rule="evenodd" d="M13.8 12.132C13.208 12.132 12.67 12.002 12.186 11.742C11.702 11.482 11.318 11.118 11.034 10.65C10.75 10.182 10.608 9.63999 10.608 9.02399C10.608 8.39199 10.752 7.84399 11.04 7.37999C11.328 6.91599 11.718 6.55399 12.21 6.29399C12.702 6.03399 13.26 5.90399 13.884 5.90399C14.572 5.90399 15.126 6.04199 15.546 6.31799C15.966 6.59399 16.272 6.96799 16.464 7.43999C16.5147 7.56461 16.5587 7.69313 16.596 7.82555V9.02399C16.596 8.61599 16.502 8.26999 16.314 7.98599C16.126 7.70199 15.862 7.48599 15.522 7.33799C15.182 7.18999 14.776 7.11599 14.304 7.11599C13.64 7.11599 13.124 7.28999 12.756 7.63799C12.388 7.98599 12.204 8.44799 12.204 9.02399C12.204 9.40799 12.292 9.74199 12.468 10.026C12.644 10.31 12.89 10.532 13.206 10.692C13.522 10.852 13.888 10.932 14.304 10.932C14.776 10.932 15.184 10.852 15.528 10.692C15.872 10.532 16.136 10.308 16.32 10.02C16.504 9.73199 16.596 9.39999 16.596 9.02399V10.0583C16.5921 10.0715 16.5881 10.0848 16.584 10.098C16.472 10.462 16.3 10.798 16.068 11.106C15.836 11.414 15.532 11.662 15.156 11.85C14.78 12.038 14.328 12.132 13.8 12.132ZM16.596 10.0583C16.7 9.70795 16.752 9.36319 16.752 9.02399C16.752 8.59418 16.7 8.1947 16.596 7.82555V6.03599H18.156V12H16.704L16.674 11.766C16.654 11.61 16.636 11.412 16.62 11.172C16.604 10.932 16.596 10.696 16.596 10.464V10.0583Z" fill="#F2F2F2"/>
<path d="M26.952 9.64799C26.912 10.168 26.746 10.616 26.454 10.992C26.162 11.368 25.76 11.654 25.248 11.85C24.736 12.046 24.128 12.144 23.424 12.144C22.688 12.144 22.03 12.026 21.45 11.79C20.87 11.554 20.414 11.206 20.082 10.746C19.75 10.286 19.584 9.71599 19.584 9.03599C19.584 8.35599 19.75 7.78399 20.082 7.31999C20.414 6.85599 20.87 6.50399 21.45 6.26399C22.03 6.02399 22.688 5.90399 23.424 5.90399C24.128 5.90399 24.732 6.00199 25.236 6.19799C25.74 6.39399 26.138 6.67599 26.43 7.04399C26.722 7.41199 26.892 7.85599 26.94 8.37599H25.512C25.376 7.97599 25.124 7.66399 24.756 7.43999C24.388 7.21599 23.944 7.10399 23.424 7.10399C23.008 7.10399 22.63 7.17599 22.29 7.31999C21.95 7.46399 21.678 7.67799 21.474 7.96199C21.27 8.24599 21.168 8.60399 21.168 9.03599C21.168 9.45999 21.268 9.81399 21.468 10.098C21.668 10.382 21.94 10.594 22.284 10.734C22.628 10.874 23.008 10.944 23.424 10.944C23.984 10.944 24.442 10.832 24.798 10.608C25.154 10.384 25.396 10.064 25.524 9.64799H26.952Z" fill="#F2F2F2"/>
<path d="M35.484 9.64799C35.444 10.168 35.278 10.616 34.986 10.992C34.694 11.368 34.292 11.654 33.78 11.85C33.268 12.046 32.66 12.144 31.956 12.144C31.22 12.144 30.562 12.026 29.982 11.79C29.402 11.554 28.946 11.206 28.614 10.746C28.282 10.286 28.116 9.71599 28.116 9.03599C28.116 8.35599 28.282 7.78399 28.614 7.31999C28.946 6.85599 29.402 6.50399 29.982 6.26399C30.562 6.02399 31.22 5.90399 31.956 5.90399C32.66 5.90399 33.264 6.00199 33.768 6.19799C34.272 6.39399 34.67 6.67599 34.962 7.04399C35.254 7.41199 35.424 7.85599 35.472 8.37599H34.044C33.908 7.97599 33.656 7.66399 33.288 7.43999C32.92 7.21599 32.476 7.10399 31.956 7.10399C31.54 7.10399 31.162 7.17599 30.822 7.31999C30.482 7.46399 30.21 7.67799 30.006 7.96199C29.802 8.24599 29.7 8.60399 29.7 9.03599C29.7 9.45999 29.8 9.81399 30 10.098C30.2 10.382 30.472 10.594 30.816 10.734C31.16 10.874 31.54 10.944 31.956 10.944C32.516 10.944 32.974 10.832 33.33 10.608C33.686 10.384 33.928 10.064 34.056 9.64799H35.484Z" fill="#F2F2F2"/>
<path fill-rule="evenodd" clip-rule="evenodd" d="M38.466 11.784C39.038 12.024 39.7 12.144 40.452 12.144C41.204 12.144 41.862 12.024 42.426 11.784C42.99 11.544 43.432 11.194 43.752 10.734C44.072 10.274 44.232 9.70799 44.232 9.03599C44.232 8.36399 44.072 7.79399 43.752 7.32599C43.432 6.85799 42.99 6.50399 42.426 6.26399C41.862 6.02399 41.204 5.90399 40.452 5.90399C39.7 5.90399 39.038 6.02399 38.466 6.26399C37.894 6.50399 37.448 6.85799 37.128 7.32599C36.808 7.79399 36.648 8.36399 36.648 9.03599C36.648 9.70799 36.808 10.274 37.128 10.734C37.448 11.194 37.894 11.544 38.466 11.784ZM41.574 10.722C41.242 10.87 40.868 10.944 40.452 10.944C40.028 10.944 39.648 10.87 39.312 10.722C38.976 10.574 38.712 10.358 38.52 10.074C38.328 9.78999 38.232 9.44399 38.232 9.03599C38.232 8.61999 38.33 8.26799 38.526 7.97999C38.722 7.69199 38.988 7.47199 39.324 7.31999C39.66 7.16799 40.036 7.09199 40.452 7.09199C40.876 7.09199 41.252 7.16799 41.58 7.31999C41.908 7.47199 42.168 7.69399 42.36 7.98599C42.552 8.27799 42.648 8.62799 42.648 9.03599C42.648 9.44399 42.552 9.78999 42.36 10.074C42.168 10.358 41.906 10.574 41.574 10.722Z" fill="#F2F2F2"/>
<path fill-rule="evenodd" clip-rule="evenodd" d="M47.214 11.784C47.786 12.024 48.448 12.144 49.2 12.144C49.952 12.144 50.61 12.024 51.174 11.784C51.738 11.544 52.18 11.194 52.5 10.734C52.82 10.274 52.98 9.70799 52.98 9.03599C52.98 8.36399 52.82 7.79399 52.5 7.32599C52.18 6.85799 51.738 6.50399 51.174 6.26399C50.61 6.02399 49.952 5.90399 49.2 5.90399C48.448 5.90399 47.786 6.02399 47.214 6.26399C46.642 6.50399 46.196 6.85799 45.876 7.32599C45.556 7.79399 45.396 8.36399 45.396 9.03599C45.396 9.70799 45.556 10.274 45.876 10.734C46.196 11.194 46.642 11.544 47.214 11.784ZM50.322 10.722C49.99 10.87 49.616 10.944 49.2 10.944C48.776 10.944 48.396 10.87 48.06 10.722C47.724 10.574 47.46 10.358 47.268 10.074C47.076 9.78999 46.98 9.44399 46.98 9.03599C46.98 8.61999 47.078 8.26799 47.274 7.97999C47.47 7.69199 47.736 7.47199 48.072 7.31999C48.408 7.16799 48.784 7.09199 49.2 7.09199C49.624 7.09199 50 7.16799 50.328 7.31999C50.656 7.47199 50.916 7.69399 51.108 7.98599C51.3 8.27799 51.396 8.62799 51.396 9.03599C51.396 9.44399 51.3 9.78999 51.108 10.074C50.916 10.358 50.654 10.574 50.322 10.722Z" fill="#F2F2F2"/>
<path fill-rule="evenodd" clip-rule="evenodd" d="M59.784 6.04799C59.472 5.95199 59.132 5.90399 58.764 5.90399C58.34 5.90399 57.96 5.96799 57.624 6.09599C57.288 6.22399 56.998 6.39799 56.754 6.61799C56.51 6.83799 56.316 7.07999 56.172 7.34399C56.0984 7.47888 56.0384 7.61586 55.992 7.75492V6.03599H54.432V12H55.992V8.45167C56.0535 8.30097 56.1455 8.15375 56.268 8.00999C56.476 7.76599 56.748 7.56399 57.084 7.40399C57.42 7.24399 57.796 7.16399 58.212 7.16399C58.764 7.16399 59.162 7.28199 59.406 7.51799C59.65 7.75399 59.772 8.12399 59.772 8.62799V12H61.332V8.35199C61.332 7.92799 61.268 7.56199 61.14 7.25399C61.012 6.94599 60.832 6.69199 60.6 6.49199C60.368 6.29199 60.096 6.14399 59.784 6.04799ZM55.992 8.45167V7.75492C55.9476 7.88803 55.9156 8.02305 55.896 8.15999L55.908 8.77199C55.9212 8.66353 55.9492 8.55676 55.992 8.45167Z" fill="#F2F2F2"/>
<path fill-rule="evenodd" clip-rule="evenodd" d="M73.068 4.54799C72.484 4.33999 71.756 4.23599 70.884 4.23599H66.444V12H70.884C71.716 12 72.422 11.894 73.002 11.682C73.582 11.47 74.05 11.182 74.406 10.818C74.762 10.454 75.022 10.036 75.186 9.56399C75.35 9.09199 75.432 8.59999 75.432 8.08799C75.432 7.57599 75.358 7.08799 75.21 6.62399C75.062 6.15999 74.814 5.74999 74.466 5.39399C74.118 5.03799 73.652 4.75599 73.068 4.54799ZM70.848 10.632H68.04V5.60399H70.848C71.424 5.60399 71.902 5.67199 72.282 5.80799C72.662 5.94399 72.964 6.12799 73.188 6.35999C73.412 6.59199 73.572 6.85599 73.668 7.15199C73.764 7.44799 73.812 7.75999 73.812 8.08799C73.812 8.41599 73.764 8.73199 73.668 9.03599C73.572 9.33999 73.412 9.61199 73.188 9.85199C72.964 10.092 72.662 10.282 72.282 10.422C71.902 10.562 71.424 10.632 70.848 10.632Z" fill="#F2F2F2"/>
<path d="M78.876 3.42001V4.78801H77.064V3.42001H78.876Z" fill="#F20505"/>
<path d="M77.184 6.03601H78.744V12H77.184V6.03601Z" fill="#F2F2F2"/>
<path fill-rule="evenodd" clip-rule="evenodd" d="M83.58 11.088C83.1185 11.088 82.6966 11.0383 82.3143 10.9389C82.478 10.937 82.6479 10.9427 82.824 10.956L83.58 11.088ZM83.58 11.088C83.076 11.104 82.702 11.146 82.458 11.214C82.214 11.282 82.092 11.416 82.092 11.616C82.092 11.736 82.14 11.83 82.236 11.898C82.332 11.966 82.468 12 82.644 12H84.6C85.136 12 85.594 12.058 85.974 12.174C86.354 12.29 86.644 12.486 86.844 12.762C87.044 13.038 87.144 13.416 87.144 13.896V14.46H85.584V14.172C85.584 13.804 85.466 13.548 85.23 13.404C84.994 13.26 84.672 13.188 84.264 13.188H82.404C82.044 13.188 81.742 13.16 81.498 13.104C81.254 13.048 81.06 12.968 80.916 12.864C80.772 12.76 80.668 12.638 80.604 12.498C80.54 12.358 80.508 12.208 80.508 12.048C80.508 11.728 80.612 11.486 80.82 11.322C81.028 11.158 81.308 11.048 81.66 10.992C81.8658 10.9593 82.0839 10.9416 82.3143 10.9389C82.1597 10.8987 82.0116 10.8504 81.87 10.794C81.378 10.598 80.996 10.308 80.724 9.92399C80.452 9.53999 80.316 9.07599 80.316 8.53199C80.316 7.99599 80.448 7.53199 80.712 7.13999C80.976 6.74799 81.354 6.44399 81.846 6.22799C82.338 6.01199 82.916 5.90399 83.58 5.90399C83.764 5.90399 83.942 5.91599 84.114 5.93999C84.286 5.96399 84.456 5.99599 84.624 6.03599L87.636 6.04799V7.22399C87.228 7.23199 86.814 7.18199 86.394 7.07399C86.1262 7.00514 85.8788 6.93222 85.6517 6.85523C85.777 6.93295 85.8984 7.01787 86.016 7.10999C86.256 7.29799 86.45 7.51399 86.598 7.75799C86.746 8.00199 86.82 8.28399 86.82 8.60399C86.82 9.12399 86.688 9.56999 86.424 9.94199C86.16 10.314 85.786 10.598 85.302 10.794C84.818 10.99 84.244 11.088 83.58 11.088ZM84.486 9.79199C84.226 9.90399 83.924 9.95999 83.58 9.95999C83.228 9.95999 82.922 9.90399 82.662 9.79199C82.402 9.67999 82.2 9.51799 82.056 9.30599C81.912 9.09399 81.84 8.83999 81.84 8.54399C81.84 8.23999 81.912 7.97999 82.056 7.76399C82.2 7.54799 82.404 7.38199 82.668 7.26599C82.932 7.14999 83.236 7.09199 83.58 7.09199C83.932 7.09199 84.236 7.14999 84.492 7.26599C84.748 7.38199 84.948 7.54799 85.092 7.76399C85.236 7.97999 85.308 8.23999 85.308 8.54399C85.308 8.83999 85.236 9.09399 85.092 9.30599C84.948 9.51799 84.746 9.67999 84.486 9.79199Z" fill="#F2F2F2"/>
<path d="M90.744 3.42001V4.78801H88.932V3.42001H90.744Z" fill="#F20505"/>
<path d="M89.052 6.03601H90.612V12H89.052V6.03601Z" fill="#F2F2F2"/>
<path fill-rule="evenodd" clip-rule="evenodd" d="M95.148 4.40399H93.588V6.03599H92.052V7.24799H93.588V12H95.148V7.24799H96.684V6.03599H95.148V4.40399ZM95.148 6.03599H93.588V7.24799H95.148V6.03599Z" fill="#F2F2F2"/>
<path fill-rule="evenodd" clip-rule="evenodd" d="M100.8 12.132C100.208 12.132 99.67 12.002 99.186 11.742C98.702 11.482 98.318 11.118 98.034 10.65C97.75 10.182 97.608 9.63999 97.608 9.02399C97.608 8.39199 97.752 7.84399 98.04 7.37999C98.328 6.91599 98.718 6.55399 99.21 6.29399C99.702 6.03399 100.26 5.90399 100.884 5.90399C101.572 5.90399 102.126 6.04199 102.546 6.31799C102.966 6.59399 103.272 6.96799 103.464 7.43999C103.515 7.56461 103.559 7.69313 103.596 7.82555V9.02399C103.596 8.61599 103.502 8.26999 103.314 7.98599C103.126 7.70199 102.862 7.48599 102.522 7.33799C102.182 7.18999 101.776 7.11599 101.304 7.11599C100.64 7.11599 100.124 7.28999 99.756 7.63799C99.388 7.98599 99.204 8.44799 99.204 9.02399C99.204 9.40799 99.292 9.74199 99.468 10.026C99.644 10.31 99.89 10.532 100.206 10.692C100.522 10.852 100.888 10.932 101.304 10.932C101.776 10.932 102.184 10.852 102.528 10.692C102.872 10.532 103.136 10.308 103.32 10.02C103.504 9.73199 103.596 9.39999 103.596 9.02399V10.0583C103.592 10.0715 103.588 10.0848 103.584 10.098C103.472 10.462 103.3 10.798 103.068 11.106C102.836 11.414 102.532 11.662 102.156 11.85C101.78 12.038 101.328 12.132 100.8 12.132ZM103.596 10.0583C103.7 9.70795 103.752 9.36319 103.752 9.02399C103.752 8.59418 103.7 8.1947 103.596 7.82555V6.03599H105.156V12H103.704L103.674 11.766C103.654 11.61 103.636 11.412 103.62 11.172C103.604 10.932 103.596 10.696 103.596 10.464V10.0583Z" fill="#F2F2F2"/>
<path d="M106.992 3.63599H108.552V12H106.992V3.63599Z" fill="#F2F2F2"/>
<path fill-rule="evenodd" clip-rule="evenodd" d="M116.748 4.23599L113.1 12H114.828L115.594 10.308H119.648L120.42 12H122.16L118.476 4.23599H116.748ZM119.04 8.97599H120.168V10.308H119.648L119.04 8.97599ZM117.613 5.84879L119.04 8.97599H116.197L117.613 5.84879ZM116.197 8.97599L115.594 10.308H115.032V8.97599H116.197Z" fill="#F2F2F2"/>
<path fill-rule="evenodd" clip-rule="evenodd" d="M126.288 11.088C125.827 11.088 125.405 11.0383 125.022 10.9389C125.186 10.937 125.356 10.9427 125.532 10.956L126.288 11.088ZM126.288 11.088C125.784 11.104 125.41 11.146 125.166 11.214C124.922 11.282 124.8 11.416 124.8 11.616C124.8 11.736 124.848 11.83 124.944 11.898C125.04 11.966 125.176 12 125.352 12H127.308C127.844 12 128.302 12.058 128.682 12.174C129.062 12.29 129.352 12.486 129.552 12.762C129.752 13.038 129.852 13.416 129.852 13.896V14.46H128.292V14.172C128.292 13.804 128.174 13.548 127.938 13.404C127.702 13.26 127.38 13.188 126.972 13.188H125.112C124.752 13.188 124.45 13.16 124.206 13.104C123.962 13.048 123.768 12.968 123.624 12.864C123.48 12.76 123.376 12.638 123.312 12.498C123.248 12.358 123.216 12.208 123.216 12.048C123.216 11.728 123.32 11.486 123.528 11.322C123.736 11.158 124.016 11.048 124.368 10.992C124.574 10.9593 124.792 10.9416 125.022 10.9389C124.868 10.8987 124.72 10.8504 124.578 10.794C124.086 10.598 123.704 10.308 123.432 9.92399C123.16 9.53999 123.024 9.07599 123.024 8.53199C123.024 7.99599 123.156 7.53199 123.42 7.13999C123.684 6.74799 124.062 6.44399 124.554 6.22799C125.046 6.01199 125.624 5.90399 126.288 5.90399C126.472 5.90399 126.65 5.91599 126.822 5.93999C126.994 5.96399 127.164 5.99599 127.332 6.03599L130.344 6.04799V7.22399C129.936 7.23199 129.522 7.18199 129.102 7.07399C128.834 7.00514 128.587 6.93222 128.36 6.85523C128.485 6.93295 128.606 7.01787 128.724 7.10999C128.964 7.29799 129.158 7.51399 129.306 7.75799C129.454 8.00199 129.528 8.28399 129.528 8.60399C129.528 9.12399 129.396 9.56999 129.132 9.94199C128.868 10.314 128.494 10.598 128.01 10.794C127.526 10.99 126.952 11.088 126.288 11.088ZM127.194 9.79199C126.934 9.90399 126.632 9.95999 126.288 9.95999C125.936 9.95999 125.63 9.90399 125.37 9.79199C125.11 9.67999 124.908 9.51799 124.764 9.30599C124.62 9.09399 124.548 8.83999 124.548 8.54399C124.548 8.23999 124.62 7.97999 124.764 7.76399C124.908 7.54799 125.112 7.38199 125.376 7.26599C125.64 7.14999 125.944 7.09199 126.288 7.09199C126.64 7.09199 126.944 7.14999 127.2 7.26599C127.456 7.38199 127.656 7.54799 127.8 7.76399C127.944 7.97999 128.016 8.23999 128.016 8.54399C128.016 8.83999 127.944 9.09399 127.8 9.30599C127.656 9.51799 127.454 9.67999 127.194 9.79199Z" fill="#F2F2F2"/>
<path fill-rule="evenodd" clip-rule="evenodd" d="M138.504 10.02H136.992C136.896 10.292 136.682 10.514 136.35 10.686C136.018 10.858 135.604 10.944 135.108 10.944C134.66 10.944 134.274 10.872 133.95 10.728C133.626 10.584 133.37 10.388 133.182 10.14C132.994 9.89199 132.88 9.61599 132.84 9.31199H138.528C138.568 8.53599 138.462 7.89799 138.21 7.39799C137.958 6.89799 137.572 6.52399 137.052 6.27599C136.532 6.02799 135.88 5.90399 135.096 5.90399C134.328 5.90399 133.658 6.02799 133.086 6.27599C132.514 6.52399 132.068 6.88199 131.748 7.34999C131.428 7.81799 131.268 8.37999 131.268 9.03599C131.268 9.69199 131.432 10.252 131.76 10.716C132.088 11.18 132.544 11.534 133.128 11.778C133.712 12.022 134.384 12.144 135.144 12.144C135.824 12.144 136.4 12.052 136.872 11.868C137.344 11.684 137.718 11.432 137.994 11.112C138.27 10.792 138.44 10.428 138.504 10.02ZM133.62 7.46999C133.98 7.21799 134.448 7.09199 135.024 7.09199C135.608 7.09199 136.07 7.20999 136.41 7.44599C136.75 7.68199 136.94 7.99999 136.98 8.39999H132.924C133.028 8.03199 133.26 7.72199 133.62 7.46999Z" fill="#F2F2F2"/>
<path fill-rule="evenodd" clip-rule="evenodd" d="M145.344 6.04799C145.032 5.95199 144.692 5.90399 144.324 5.90399C143.9 5.90399 143.52 5.96799 143.184 6.09599C142.848 6.22399 142.558 6.39799 142.314 6.61799C142.07 6.83799 141.876 7.07999 141.732 7.34399C141.658 7.47888 141.598 7.61586 141.552 7.75492V6.03599H139.992V12H141.552V8.45167C141.613 8.30097 141.705 8.15375 141.828 8.00999C142.036 7.76599 142.308 7.56399 142.644 7.40399C142.98 7.24399 143.356 7.16399 143.772 7.16399C144.324 7.16399 144.722 7.28199 144.966 7.51799C145.21 7.75399 145.332 8.12399 145.332 8.62799V12H146.892V8.35199C146.892 7.92799 146.828 7.56199 146.7 7.25399C146.572 6.94599 146.392 6.69199 146.16 6.49199C145.928 6.29199 145.656 6.14399 145.344 6.04799ZM141.552 8.45167V7.75492C141.508 7.88803 141.476 8.02305 141.456 8.15999L141.468 8.77199C141.481 8.66353 141.509 8.55676 141.552 8.45167Z" fill="#F2F2F2"/>
<path d="M155.688 9.64799C155.648 10.168 155.482 10.616 155.19 10.992C154.898 11.368 154.496 11.654 153.984 11.85C153.472 12.046 152.864 12.144 152.16 12.144C151.424 12.144 150.766 12.026 150.186 11.79C149.606 11.554 149.15 11.206 148.818 10.746C148.486 10.286 148.32 9.71599 148.32 9.03599C148.32 8.35599 148.486 7.78399 148.818 7.31999C149.15 6.85599 149.606 6.50399 150.186 6.26399C150.766 6.02399 151.424 5.90399 152.16 5.90399C152.864 5.90399 153.468 6.00199 153.972 6.19799C154.476 6.39399 154.874 6.67599 155.166 7.04399C155.458 7.41199 155.628 7.85599 155.676 8.37599H154.248C154.112 7.97599 153.86 7.66399 153.492 7.43999C153.124 7.21599 152.68 7.10399 152.16 7.10399C151.744 7.10399 151.366 7.17599 151.026 7.31999C150.686 7.46399 150.414 7.67799 150.21 7.96199C150.006 8.24599 149.904 8.60399 149.904 9.03599C149.904 9.45999 150.004 9.81399 150.204 10.098C150.404 10.382 150.676 10.594 151.02 10.734C151.364 10.874 151.744 10.944 152.16 10.944C152.72 10.944 153.178 10.832 153.534 10.608C153.89 10.384 154.132 10.064 154.26 9.64799H155.688Z" fill="#F2F2F2"/>
<path fill-rule="evenodd" clip-rule="evenodd" d="M158.256 6.03601H156.6L159.465 11.9448L158.148 14.4H159.768L163.896 6.03601H162.228L160.23 10.4153L158.256 6.03601ZM160.23 10.4153L159.912 11.112L159.465 11.9448L159.492 12L160.836 11.76L160.23 10.4153Z" fill="#F2F2F2"/>
</svg>
