<svg width="328" height="32" viewBox="0 0 328 32" fill="none" xmlns="http://www.w3.org/2000/svg">
<path fill-rule="evenodd" clip-rule="evenodd" d="M1 6.63184V22.1598H4.192V16.4238H10.216C11.224 16.4238 11.996 16.4878 12.532 16.6158C13.068 16.7438 13.44 16.9718 13.648 17.2998C13.856 17.6278 13.96 18.0878 13.96 18.6798V22.1598H17.152V18.4638C17.152 17.5998 16.972 16.9478 16.612 16.5078C16.252 16.0678 15.712 15.7638 14.992 15.5958C14.5901 15.5021 14.1259 15.432 13.5994 15.3856C13.8965 15.333 14.1847 15.2671 14.464 15.1878C15.056 15.0198 15.58 14.7758 16.036 14.4558C16.492 14.1358 16.848 13.7198 17.104 13.2078C17.36 12.6958 17.488 12.0718 17.488 11.3358C17.488 10.2478 17.24 9.35584 16.744 8.65984C16.248 7.96384 15.556 7.45184 14.668 7.12384C13.78 6.79584 12.736 6.63184 11.536 6.63184H1ZM11.536 13.9278H4.192V9.36784H11.536C12.432 9.36784 13.116 9.55184 13.588 9.91984C14.06 10.2878 14.296 10.8238 14.296 11.5278C14.296 12.2638 14.06 12.8478 13.588 13.2798C13.116 13.7118 12.432 13.9278 11.536 13.9278Z" fill="#F2F2F2"/>
<path fill-rule="evenodd" clip-rule="evenodd" d="M26.752 22.4238C25.568 22.4238 24.492 22.1638 23.524 21.6438C22.556 21.1238 21.788 20.3958 21.22 19.4598C20.652 18.5238 20.368 17.4398 20.368 16.2078C20.368 14.9438 20.656 13.8478 21.232 12.9198C21.808 11.9918 22.588 11.2678 23.572 10.7478C24.556 10.2278 25.672 9.96777 26.92 9.96777C28.296 9.96777 29.404 10.2438 30.244 10.7958C31.084 11.3478 31.696 12.0958 32.08 13.0398C32.1814 13.289 32.2694 13.5461 32.344 13.8109V16.2078C32.344 15.3918 32.156 14.6998 31.78 14.1318C31.404 13.5638 30.876 13.1318 30.196 12.8358C29.516 12.5398 28.704 12.3918 27.76 12.3918C26.432 12.3918 25.4 12.7398 24.664 13.4358C23.928 14.1318 23.56 15.0558 23.56 16.2078C23.56 16.9758 23.736 17.6438 24.088 18.2118C24.44 18.7798 24.932 19.2238 25.564 19.5438C26.196 19.8638 26.928 20.0238 27.76 20.0238C28.704 20.0238 29.52 19.8638 30.208 19.5438C30.896 19.2238 31.424 18.7758 31.792 18.1998C32.16 17.6238 32.344 16.9598 32.344 16.2078V18.2764C32.3362 18.3028 32.3282 18.3293 32.32 18.3558C32.096 19.0838 31.752 19.7558 31.288 20.3718C30.824 20.9878 30.216 21.4838 29.464 21.8598C28.712 22.2358 27.808 22.4238 26.752 22.4238ZM32.344 18.2764C32.552 17.5757 32.656 16.8862 32.656 16.2078C32.656 15.3481 32.552 14.5492 32.344 13.8109V10.2318H35.464V22.1598H32.56L32.5 21.6918C32.46 21.3798 32.424 20.9838 32.392 20.5038C32.36 20.0238 32.344 19.5518 32.344 19.0878V18.2764Z" fill="#F2F2F2"/>
<path d="M53.056 17.4558C52.976 18.4958 52.644 19.3918 52.06 20.1438C51.476 20.8958 50.672 21.4678 49.648 21.8598C48.624 22.2518 47.408 22.4478 46 22.4478C44.528 22.4478 43.212 22.2118 42.052 21.7398C40.892 21.2678 39.98 20.5718 39.316 19.6518C38.652 18.7318 38.32 17.5918 38.32 16.2318C38.32 14.8718 38.652 13.7278 39.316 12.7998C39.98 11.8718 40.892 11.1678 42.052 10.6878C43.212 10.2078 44.528 9.96777 46 9.96777C47.408 9.96777 48.616 10.1638 49.624 10.5558C50.632 10.9478 51.428 11.5118 52.012 12.2478C52.596 12.9838 52.936 13.8718 53.032 14.9118H50.176C49.904 14.1118 49.4 13.4878 48.664 13.0398C47.928 12.5918 47.04 12.3678 46 12.3678C45.168 12.3678 44.412 12.5118 43.732 12.7998C43.052 13.0878 42.508 13.5158 42.1 14.0838C41.692 14.6518 41.488 15.3678 41.488 16.2318C41.488 17.0798 41.688 17.7878 42.088 18.3558C42.488 18.9238 43.032 19.3478 43.72 19.6278C44.408 19.9078 45.168 20.0478 46 20.0478C47.12 20.0478 48.036 19.8238 48.748 19.3758C49.46 18.9278 49.944 18.2878 50.2 17.4558H53.056Z" fill="#F2F2F2"/>
<path d="M70.12 17.4558C70.04 18.4958 69.708 19.3918 69.124 20.1438C68.54 20.8958 67.736 21.4678 66.712 21.8598C65.688 22.2518 64.472 22.4478 63.064 22.4478C61.592 22.4478 60.276 22.2118 59.116 21.7398C57.956 21.2678 57.044 20.5718 56.38 19.6518C55.716 18.7318 55.384 17.5918 55.384 16.2318C55.384 14.8718 55.716 13.7278 56.38 12.7998C57.044 11.8718 57.956 11.1678 59.116 10.6878C60.276 10.2078 61.592 9.96777 63.064 9.96777C64.472 9.96777 65.68 10.1638 66.688 10.5558C67.696 10.9478 68.492 11.5118 69.076 12.2478C69.66 12.9838 70 13.8718 70.096 14.9118H67.24C66.968 14.1118 66.464 13.4878 65.728 13.0398C64.992 12.5918 64.104 12.3678 63.064 12.3678C62.232 12.3678 61.476 12.5118 60.796 12.7998C60.116 13.0878 59.572 13.5158 59.164 14.0838C58.756 14.6518 58.552 15.3678 58.552 16.2318C58.552 17.0798 58.752 17.7878 59.152 18.3558C59.552 18.9238 60.096 19.3478 60.784 19.6278C61.472 19.9078 62.232 20.0478 63.064 20.0478C64.184 20.0478 65.1 19.8238 65.812 19.3758C66.524 18.9278 67.008 18.2878 67.264 17.4558H70.12Z" fill="#F2F2F2"/>
<path fill-rule="evenodd" clip-rule="evenodd" d="M76.084 21.7278C77.228 22.2078 78.552 22.4478 80.056 22.4478C81.56 22.4478 82.876 22.2078 84.004 21.7278C85.132 21.2478 86.016 20.5478 86.656 19.6278C87.296 18.7078 87.616 17.5758 87.616 16.2318C87.616 14.8878 87.296 13.7478 86.656 12.8118C86.016 11.8758 85.132 11.1678 84.004 10.6878C82.876 10.2078 81.56 9.96777 80.056 9.96777C78.552 9.96777 77.228 10.2078 76.084 10.6878C74.94 11.1678 74.048 11.8758 73.408 12.8118C72.768 13.7478 72.448 14.8878 72.448 16.2318C72.448 17.5758 72.768 18.7078 73.408 19.6278C74.048 20.5478 74.94 21.2478 76.084 21.7278ZM82.3 19.6038C81.636 19.8998 80.888 20.0478 80.056 20.0478C79.208 20.0478 78.448 19.8998 77.776 19.6038C77.104 19.3078 76.576 18.8758 76.192 18.3078C75.808 17.7398 75.616 17.0478 75.616 16.2318C75.616 15.3998 75.812 14.6958 76.204 14.1198C76.596 13.5438 77.128 13.1038 77.8 12.7998C78.472 12.4958 79.224 12.3438 80.056 12.3438C80.904 12.3438 81.656 12.4958 82.312 12.7998C82.968 13.1038 83.488 13.5478 83.872 14.1318C84.256 14.7158 84.448 15.4158 84.448 16.2318C84.448 17.0478 84.256 17.7398 83.872 18.3078C83.488 18.8758 82.964 19.3078 82.3 19.6038Z" fill="#F2F2F2"/>
<path fill-rule="evenodd" clip-rule="evenodd" d="M93.58 21.7278C94.724 22.2078 96.048 22.4478 97.552 22.4478C99.056 22.4478 100.372 22.2078 101.5 21.7278C102.628 21.2478 103.512 20.5478 104.152 19.6278C104.792 18.7078 105.112 17.5758 105.112 16.2318C105.112 14.8878 104.792 13.7478 104.152 12.8118C103.512 11.8758 102.628 11.1678 101.5 10.6878C100.372 10.2078 99.056 9.96777 97.552 9.96777C96.048 9.96777 94.724 10.2078 93.58 10.6878C92.436 11.1678 91.544 11.8758 90.904 12.8118C90.264 13.7478 89.944 14.8878 89.944 16.2318C89.944 17.5758 90.264 18.7078 90.904 19.6278C91.544 20.5478 92.436 21.2478 93.58 21.7278ZM99.796 19.6038C99.132 19.8998 98.384 20.0478 97.552 20.0478C96.704 20.0478 95.944 19.8998 95.272 19.6038C94.6 19.3078 94.072 18.8758 93.688 18.3078C93.304 17.7398 93.112 17.0478 93.112 16.2318C93.112 15.3998 93.308 14.6958 93.7 14.1198C94.092 13.5438 94.624 13.1038 95.296 12.7998C95.968 12.4958 96.72 12.3438 97.552 12.3438C98.4 12.3438 99.152 12.4958 99.808 12.7998C100.464 13.1038 100.984 13.5478 101.368 14.1318C101.752 14.7158 101.944 15.4158 101.944 16.2318C101.944 17.0478 101.752 17.7398 101.368 18.3078C100.984 18.8758 100.46 19.3078 99.796 19.6038Z" fill="#F2F2F2"/>
<path fill-rule="evenodd" clip-rule="evenodd" d="M118.72 10.2558C118.096 10.0638 117.416 9.96777 116.68 9.96777C115.832 9.96777 115.072 10.0958 114.4 10.3518C113.728 10.6078 113.148 10.9558 112.66 11.3958C112.172 11.8358 111.784 12.3198 111.496 12.8478C111.349 13.1175 111.229 13.3915 111.136 13.6696V10.2318H108.016V22.1598H111.136V15.0631C111.259 14.7617 111.443 14.4673 111.688 14.1798C112.104 13.6918 112.648 13.2878 113.32 12.9678C113.992 12.6478 114.744 12.4878 115.576 12.4878C116.68 12.4878 117.476 12.7238 117.964 13.1958C118.452 13.6678 118.696 14.4078 118.696 15.4158V22.1598H121.816V14.8638C121.816 14.0158 121.688 13.2838 121.432 12.6678C121.176 12.0518 120.816 11.5438 120.352 11.1438C119.888 10.7438 119.344 10.4478 118.72 10.2558ZM111.136 15.0631V13.6696C111.047 13.9359 110.983 14.2059 110.944 14.4798L110.968 15.7038C110.994 15.4869 111.05 15.2733 111.136 15.0631Z" fill="#F2F2F2"/>
<path fill-rule="evenodd" clip-rule="evenodd" d="M145.288 7.25584C144.12 6.83984 142.664 6.63184 140.92 6.63184H132.04V22.1598H140.92C142.584 22.1598 143.996 21.9478 145.156 21.5238C146.316 21.0998 147.252 20.5238 147.964 19.7958C148.676 19.0678 149.196 18.2318 149.524 17.2878C149.852 16.3438 150.016 15.3598 150.016 14.3358C150.016 13.3118 149.868 12.3358 149.572 11.4078C149.276 10.4798 148.78 9.65984 148.084 8.94784C147.388 8.23584 146.456 7.67184 145.288 7.25584ZM140.848 19.4238H135.232V9.36784H140.848C142 9.36784 142.956 9.50384 143.716 9.77584C144.476 10.0478 145.08 10.4158 145.528 10.8798C145.976 11.3438 146.296 11.8718 146.488 12.4638C146.68 13.0558 146.776 13.6798 146.776 14.3358C146.776 14.9918 146.68 15.6238 146.488 16.2318C146.296 16.8398 145.976 17.3838 145.528 17.8638C145.08 18.3438 144.476 18.7238 143.716 19.0038C142.956 19.2838 142 19.4238 140.848 19.4238Z" fill="#F2F2F2"/>
<path d="M156.904 5V7.736H153.28V5H156.904Z" fill="#F20505"/>
<path d="M153.52 10.2319H156.64V22.1599H153.52V10.2319Z" fill="#F2F2F2"/>
<path fill-rule="evenodd" clip-rule="evenodd" d="M166.312 20.3358C165.389 20.3358 164.545 20.2364 163.781 20.0376C164.108 20.0338 164.448 20.0452 164.8 20.0718L166.312 20.3358ZM166.312 20.3358C165.304 20.3678 164.556 20.4518 164.068 20.5878C163.58 20.7238 163.336 20.9918 163.336 21.3918C163.336 21.6318 163.432 21.8198 163.624 21.9558C163.816 22.0918 164.088 22.1598 164.44 22.1598H168.352C169.424 22.1598 170.34 22.2758 171.1 22.5078C171.86 22.7398 172.44 23.1318 172.84 23.6838C173.24 24.2358 173.44 24.9918 173.44 25.9518V27.0798H170.32V26.5038C170.32 25.7678 170.084 25.2558 169.612 24.9678C169.14 24.6798 168.496 24.5358 167.68 24.5358H163.96C163.24 24.5358 162.636 24.4798 162.148 24.3678C161.66 24.2558 161.272 24.0958 160.984 23.8878C160.696 23.6798 160.488 23.4358 160.36 23.1558C160.232 22.8758 160.168 22.5758 160.168 22.2558C160.168 21.6158 160.376 21.1318 160.792 20.8038C161.208 20.4758 161.768 20.2558 162.472 20.1438C162.884 20.0783 163.32 20.0429 163.781 20.0376C163.471 19.9572 163.175 19.8606 162.892 19.7478C161.908 19.3558 161.144 18.7758 160.6 18.0078C160.056 17.2398 159.784 16.3118 159.784 15.2238C159.784 14.1518 160.048 13.2238 160.576 12.4398C161.104 11.6558 161.86 11.0478 162.844 10.6158C163.828 10.1838 164.984 9.96777 166.312 9.96777C166.68 9.96777 167.036 9.99177 167.38 10.0398C167.724 10.0878 168.064 10.1518 168.4 10.2318L174.424 10.2558V12.6078C173.608 12.6238 172.78 12.5238 171.94 12.3078C171.404 12.1701 170.91 12.0242 170.455 11.8703C170.706 12.0257 170.949 12.1955 171.184 12.3798C171.664 12.7558 172.052 13.1878 172.348 13.6758C172.644 14.1638 172.792 14.7278 172.792 15.3678C172.792 16.4078 172.528 17.2998 172 18.0438C171.472 18.7878 170.724 19.3558 169.756 19.7478C168.788 20.1398 167.64 20.3358 166.312 20.3358ZM168.124 17.7438C167.604 17.9678 167 18.0798 166.312 18.0798C165.608 18.0798 164.996 17.9678 164.476 17.7438C163.956 17.5198 163.552 17.1958 163.264 16.7718C162.976 16.3478 162.832 15.8398 162.832 15.2478C162.832 14.6398 162.976 14.1198 163.264 13.6878C163.552 13.2558 163.96 12.9238 164.488 12.6918C165.016 12.4598 165.624 12.3438 166.312 12.3438C167.016 12.3438 167.624 12.4598 168.136 12.6918C168.648 12.9238 169.048 13.2558 169.336 13.6878C169.624 14.1198 169.768 14.6398 169.768 15.2478C169.768 15.8398 169.624 16.3478 169.336 16.7718C169.048 17.1958 168.644 17.5198 168.124 17.7438Z" fill="#F2F2F2"/>
<path d="M180.64 5V7.736H177.016V5H180.64Z" fill="#F20505"/>
<path d="M177.256 10.2319H180.376V22.1599H177.256V10.2319Z" fill="#F2F2F2"/>
<path fill-rule="evenodd" clip-rule="evenodd" d="M189.448 6.96777H186.328V10.2318H183.256V12.6558H186.328V22.1598H189.448V12.6558H192.52V10.2318H189.448V6.96777ZM189.448 10.2318H186.328V12.6558H189.448V10.2318Z" fill="#F2F2F2"/>
<path fill-rule="evenodd" clip-rule="evenodd" d="M200.752 22.4238C199.568 22.4238 198.492 22.1638 197.524 21.6438C196.556 21.1238 195.788 20.3958 195.22 19.4598C194.652 18.5238 194.368 17.4398 194.368 16.2078C194.368 14.9438 194.656 13.8478 195.232 12.9198C195.808 11.9918 196.588 11.2678 197.572 10.7478C198.556 10.2278 199.672 9.96777 200.92 9.96777C202.296 9.96777 203.404 10.2438 204.244 10.7958C205.084 11.3478 205.696 12.0958 206.08 13.0398C206.181 13.289 206.269 13.5461 206.344 13.8109V16.2078C206.344 15.3918 206.156 14.6998 205.78 14.1318C205.404 13.5638 204.876 13.1318 204.196 12.8358C203.516 12.5398 202.704 12.3918 201.76 12.3918C200.432 12.3918 199.4 12.7398 198.664 13.4358C197.928 14.1318 197.56 15.0558 197.56 16.2078C197.56 16.9758 197.736 17.6438 198.088 18.2118C198.44 18.7798 198.932 19.2238 199.564 19.5438C200.196 19.8638 200.928 20.0238 201.76 20.0238C202.704 20.0238 203.52 19.8638 204.208 19.5438C204.896 19.2238 205.424 18.7758 205.792 18.1998C206.16 17.6238 206.344 16.9598 206.344 16.2078V18.2764C206.336 18.3028 206.328 18.3293 206.32 18.3558C206.096 19.0838 205.752 19.7558 205.288 20.3718C204.824 20.9878 204.216 21.4838 203.464 21.8598C202.712 22.2358 201.808 22.4238 200.752 22.4238ZM206.344 18.2764C206.552 17.5757 206.656 16.8862 206.656 16.2078C206.656 15.3481 206.552 14.5492 206.344 13.8109V10.2318H209.464V22.1598H206.56L206.5 21.6918C206.46 21.3798 206.424 20.9838 206.392 20.5038C206.36 20.0238 206.344 19.5518 206.344 19.0878V18.2764Z" fill="#F2F2F2"/>
<path d="M213.136 5.43213H216.256V22.1601H213.136V5.43213Z" fill="#F2F2F2"/>
<path fill-rule="evenodd" clip-rule="evenodd" d="M232.648 6.63184L225.352 22.1598H228.808L230.34 18.7758H238.448L239.992 22.1598H243.472L236.104 6.63184H232.648ZM237.233 16.1118H239.488V18.7758H238.448L237.233 16.1118ZM234.379 9.85744L237.233 16.1118H231.547L234.379 9.85744ZM231.547 16.1118L230.34 18.7758H229.216V16.1118H231.547Z" fill="#F2F2F2"/>
<path fill-rule="evenodd" clip-rule="evenodd" d="M251.728 20.3358C250.805 20.3358 249.961 20.2364 249.197 20.0376C249.524 20.0338 249.864 20.0452 250.216 20.0718L251.728 20.3358ZM251.728 20.3358C250.72 20.3678 249.972 20.4518 249.484 20.5878C248.996 20.7238 248.752 20.9918 248.752 21.3918C248.752 21.6318 248.848 21.8198 249.04 21.9558C249.232 22.0918 249.504 22.1598 249.856 22.1598H253.768C254.84 22.1598 255.756 22.2758 256.516 22.5078C257.276 22.7398 257.856 23.1318 258.256 23.6838C258.656 24.2358 258.856 24.9918 258.856 25.9518V27.0798H255.736V26.5038C255.736 25.7678 255.5 25.2558 255.028 24.9678C254.556 24.6798 253.912 24.5358 253.096 24.5358H249.376C248.656 24.5358 248.052 24.4798 247.564 24.3678C247.076 24.2558 246.688 24.0958 246.4 23.8878C246.112 23.6798 245.904 23.4358 245.776 23.1558C245.648 22.8758 245.584 22.5758 245.584 22.2558C245.584 21.6158 245.792 21.1318 246.208 20.8038C246.624 20.4758 247.184 20.2558 247.888 20.1438C248.3 20.0783 248.736 20.0429 249.197 20.0376C248.887 19.9572 248.591 19.8606 248.308 19.7478C247.324 19.3558 246.56 18.7758 246.016 18.0078C245.472 17.2398 245.2 16.3118 245.2 15.2238C245.2 14.1518 245.464 13.2238 245.992 12.4398C246.52 11.6558 247.276 11.0478 248.26 10.6158C249.244 10.1838 250.4 9.96777 251.728 9.96777C252.096 9.96777 252.452 9.99177 252.796 10.0398C253.14 10.0878 253.48 10.1518 253.816 10.2318L259.84 10.2558V12.6078C259.024 12.6238 258.196 12.5238 257.356 12.3078C256.82 12.1701 256.326 12.0242 255.871 11.8703C256.122 12.0257 256.365 12.1955 256.6 12.3798C257.08 12.7558 257.468 13.1878 257.764 13.6758C258.06 14.1638 258.208 14.7278 258.208 15.3678C258.208 16.4078 257.944 17.2998 257.416 18.0438C256.888 18.7878 256.14 19.3558 255.172 19.7478C254.204 20.1398 253.056 20.3358 251.728 20.3358ZM253.54 17.7438C253.02 17.9678 252.416 18.0798 251.728 18.0798C251.024 18.0798 250.412 17.9678 249.892 17.7438C249.372 17.5198 248.968 17.1958 248.68 16.7718C248.392 16.3478 248.248 15.8398 248.248 15.2478C248.248 14.6398 248.392 14.1198 248.68 13.6878C248.968 13.2558 249.376 12.9238 249.904 12.6918C250.432 12.4598 251.04 12.3438 251.728 12.3438C252.432 12.3438 253.04 12.4598 253.552 12.6918C254.064 12.9238 254.464 13.2558 254.752 13.6878C255.04 14.1198 255.184 14.6398 255.184 15.2478C255.184 15.8398 255.04 16.3478 254.752 16.7718C254.464 17.1958 254.06 17.5198 253.54 17.7438Z" fill="#F2F2F2"/>
<path fill-rule="evenodd" clip-rule="evenodd" d="M276.16 18.1998H273.136C272.944 18.7438 272.516 19.1878 271.852 19.5318C271.188 19.8758 270.36 20.0478 269.368 20.0478C268.472 20.0478 267.7 19.9038 267.052 19.6158C266.404 19.3278 265.892 18.9358 265.516 18.4398C265.14 17.9438 264.912 17.3918 264.832 16.7838H276.208C276.288 15.2318 276.076 13.9558 275.572 12.9558C275.068 11.9558 274.296 11.2078 273.256 10.7118C272.216 10.2158 270.912 9.96777 269.344 9.96777C267.808 9.96777 266.468 10.2158 265.324 10.7118C264.18 11.2078 263.288 11.9238 262.648 12.8598C262.008 13.7958 261.688 14.9198 261.688 16.2318C261.688 17.5438 262.016 18.6638 262.672 19.5918C263.328 20.5198 264.24 21.2278 265.408 21.7158C266.576 22.2038 267.92 22.4478 269.44 22.4478C270.8 22.4478 271.952 22.2638 272.896 21.8958C273.84 21.5278 274.588 21.0238 275.14 20.3838C275.692 19.7438 276.032 19.0158 276.16 18.1998ZM266.392 13.0998C267.112 12.5958 268.048 12.3438 269.2 12.3438C270.368 12.3438 271.292 12.5798 271.972 13.0518C272.652 13.5238 273.032 14.1598 273.112 14.9598H265C265.208 14.2238 265.672 13.6038 266.392 13.0998Z" fill="#F2F2F2"/>
<path fill-rule="evenodd" clip-rule="evenodd" d="M289.84 10.2558C289.216 10.0638 288.536 9.96777 287.8 9.96777C286.952 9.96777 286.192 10.0958 285.52 10.3518C284.848 10.6078 284.268 10.9558 283.78 11.3958C283.292 11.8358 282.904 12.3198 282.616 12.8478C282.469 13.1175 282.349 13.3915 282.256 13.6696V10.2318H279.136V22.1598H282.256V15.0631C282.379 14.7617 282.563 14.4673 282.808 14.1798C283.224 13.6918 283.768 13.2878 284.44 12.9678C285.112 12.6478 285.864 12.4878 286.696 12.4878C287.8 12.4878 288.596 12.7238 289.084 13.1958C289.572 13.6678 289.816 14.4078 289.816 15.4158V22.1598H292.936V14.8638C292.936 14.0158 292.808 13.2838 292.552 12.6678C292.296 12.0518 291.936 11.5438 291.472 11.1438C291.008 10.7438 290.464 10.4478 289.84 10.2558ZM282.256 15.0631V13.6696C282.167 13.9359 282.103 14.2059 282.064 14.4798L282.088 15.7038C282.114 15.4869 282.17 15.2733 282.256 15.0631Z" fill="#F2F2F2"/>
<path d="M310.528 17.4558C310.448 18.4958 310.116 19.3918 309.532 20.1438C308.948 20.8958 308.144 21.4678 307.12 21.8598C306.096 22.2518 304.88 22.4478 303.472 22.4478C302 22.4478 300.684 22.2118 299.524 21.7398C298.364 21.2678 297.452 20.5718 296.788 19.6518C296.124 18.7318 295.792 17.5918 295.792 16.2318C295.792 14.8718 296.124 13.7278 296.788 12.7998C297.452 11.8718 298.364 11.1678 299.524 10.6878C300.684 10.2078 302 9.96777 303.472 9.96777C304.88 9.96777 306.088 10.1638 307.096 10.5558C308.104 10.9478 308.9 11.5118 309.484 12.2478C310.068 12.9838 310.408 13.8718 310.504 14.9118H307.648C307.376 14.1118 306.872 13.4878 306.136 13.0398C305.4 12.5918 304.512 12.3678 303.472 12.3678C302.64 12.3678 301.884 12.5118 301.204 12.7998C300.524 13.0878 299.98 13.5158 299.572 14.0838C299.164 14.6518 298.96 15.3678 298.96 16.2318C298.96 17.0798 299.16 17.7878 299.56 18.3558C299.96 18.9238 300.504 19.3478 301.192 19.6278C301.88 19.9078 302.64 20.0478 303.472 20.0478C304.592 20.0478 305.508 19.8238 306.22 19.3758C306.932 18.9278 307.416 18.2878 307.672 17.4558H310.528Z" fill="#F2F2F2"/>
<path fill-rule="evenodd" clip-rule="evenodd" d="M315.664 10.2319H312.352L318.082 22.0495L315.448 26.9599H318.688L326.944 10.2319H323.608L319.612 18.9905L315.664 10.2319ZM319.612 18.9905L318.976 20.3839L318.082 22.0495L318.136 22.1599L320.824 21.6799L319.612 18.9905Z" fill="#F2F2F2"/>
</svg>
