<svg width="328" height="32" viewBox="0 0 328 32" fill="none" xmlns="http://www.w3.org/2000/svg">
<path fill-rule="evenodd" clip-rule="evenodd" d="M1 6.632V22.16H4.192V16.424H10.216C11.224 16.424 11.996 16.488 12.532 16.616C13.068 16.744 13.44 16.972 13.648 17.3C13.856 17.628 13.96 18.088 13.96 18.68V22.16H17.152V18.464C17.152 17.6 16.972 16.948 16.612 16.508C16.252 16.068 15.712 15.764 14.992 15.596C14.5901 15.5022 14.1259 15.4321 13.5994 15.3857C13.8965 15.3332 14.1847 15.2673 14.464 15.188C15.056 15.02 15.58 14.776 16.036 14.456C16.492 14.136 16.848 13.72 17.104 13.208C17.36 12.696 17.488 12.072 17.488 11.336C17.488 10.248 17.24 9.356 16.744 8.66C16.248 7.964 15.556 7.452 14.668 7.124C13.78 6.796 12.736 6.632 11.536 6.632H1ZM11.536 13.928H4.192V9.368H11.536C12.432 9.368 13.116 9.552 13.588 9.92C14.06 10.288 14.296 10.824 14.296 11.528C14.296 12.264 14.06 12.848 13.588 13.28C13.116 13.712 12.432 13.928 11.536 13.928Z" fill="#F2F2F2"/>
<path fill-rule="evenodd" clip-rule="evenodd" d="M26.752 22.424C25.568 22.424 24.492 22.164 23.524 21.644C22.556 21.124 21.788 20.396 21.22 19.46C20.652 18.524 20.368 17.44 20.368 16.208C20.368 14.944 20.656 13.848 21.232 12.92C21.808 11.992 22.588 11.268 23.572 10.748C24.556 10.228 25.672 9.968 26.92 9.968C28.296 9.968 29.404 10.244 30.244 10.796C31.084 11.348 31.696 12.096 32.08 13.04C32.1814 13.2892 32.2694 13.5463 32.344 13.8111V16.208C32.344 15.392 32.156 14.7 31.78 14.132C31.404 13.564 30.876 13.132 30.196 12.836C29.516 12.54 28.704 12.392 27.76 12.392C26.432 12.392 25.4 12.74 24.664 13.436C23.928 14.132 23.56 15.056 23.56 16.208C23.56 16.976 23.736 17.644 24.088 18.212C24.44 18.78 24.932 19.224 25.564 19.544C26.196 19.864 26.928 20.024 27.76 20.024C28.704 20.024 29.52 19.864 30.208 19.544C30.896 19.224 31.424 18.776 31.792 18.2C32.16 17.624 32.344 16.96 32.344 16.208V18.2766C32.3361 18.3031 32.3281 18.3295 32.32 18.356C32.096 19.084 31.752 19.756 31.288 20.372C30.824 20.988 30.216 21.484 29.464 21.86C28.712 22.236 27.808 22.424 26.752 22.424ZM32.344 18.2766C32.552 17.5759 32.656 16.8864 32.656 16.208C32.656 15.3484 32.552 14.5494 32.344 13.8111V10.232H35.464V22.16H32.56L32.5 21.692C32.46 21.38 32.424 20.984 32.392 20.504C32.36 20.024 32.344 19.552 32.344 19.088V18.2766Z" fill="#F2F2F2"/>
<path d="M53.056 17.456C52.976 18.496 52.644 19.392 52.06 20.144C51.476 20.896 50.672 21.468 49.648 21.86C48.624 22.252 47.408 22.448 46 22.448C44.528 22.448 43.212 22.212 42.052 21.74C40.892 21.268 39.98 20.572 39.316 19.652C38.652 18.732 38.32 17.592 38.32 16.232C38.32 14.872 38.652 13.728 39.316 12.8C39.98 11.872 40.892 11.168 42.052 10.688C43.212 10.208 44.528 9.968 46 9.968C47.408 9.968 48.616 10.164 49.624 10.556C50.632 10.948 51.428 11.512 52.012 12.248C52.596 12.984 52.936 13.872 53.032 14.912H50.176C49.904 14.112 49.4 13.488 48.664 13.04C47.928 12.592 47.04 12.368 46 12.368C45.168 12.368 44.412 12.512 43.732 12.8C43.052 13.088 42.508 13.516 42.1 14.084C41.692 14.652 41.488 15.368 41.488 16.232C41.488 17.08 41.688 17.788 42.088 18.356C42.488 18.924 43.032 19.348 43.72 19.628C44.408 19.908 45.168 20.048 46 20.048C47.12 20.048 48.036 19.824 48.748 19.376C49.46 18.928 49.944 18.288 50.2 17.456H53.056Z" fill="#F2F2F2"/>
<path d="M70.12 17.456C70.04 18.496 69.708 19.392 69.124 20.144C68.54 20.896 67.736 21.468 66.712 21.86C65.688 22.252 64.472 22.448 63.064 22.448C61.592 22.448 60.276 22.212 59.116 21.74C57.956 21.268 57.044 20.572 56.38 19.652C55.716 18.732 55.384 17.592 55.384 16.232C55.384 14.872 55.716 13.728 56.38 12.8C57.044 11.872 57.956 11.168 59.116 10.688C60.276 10.208 61.592 9.968 63.064 9.968C64.472 9.968 65.68 10.164 66.688 10.556C67.696 10.948 68.492 11.512 69.076 12.248C69.66 12.984 70 13.872 70.096 14.912H67.24C66.968 14.112 66.464 13.488 65.728 13.04C64.992 12.592 64.104 12.368 63.064 12.368C62.232 12.368 61.476 12.512 60.796 12.8C60.116 13.088 59.572 13.516 59.164 14.084C58.756 14.652 58.552 15.368 58.552 16.232C58.552 17.08 58.752 17.788 59.152 18.356C59.552 18.924 60.096 19.348 60.784 19.628C61.472 19.908 62.232 20.048 63.064 20.048C64.184 20.048 65.1 19.824 65.812 19.376C66.524 18.928 67.008 18.288 67.264 17.456H70.12Z" fill="#F2F2F2"/>
<path fill-rule="evenodd" clip-rule="evenodd" d="M76.084 21.728C77.228 22.208 78.552 22.448 80.056 22.448C81.56 22.448 82.876 22.208 84.004 21.728C85.132 21.248 86.016 20.548 86.656 19.628C87.296 18.708 87.616 17.576 87.616 16.232C87.616 14.888 87.296 13.748 86.656 12.812C86.016 11.876 85.132 11.168 84.004 10.688C82.876 10.208 81.56 9.968 80.056 9.968C78.552 9.968 77.228 10.208 76.084 10.688C74.94 11.168 74.048 11.876 73.408 12.812C72.768 13.748 72.448 14.888 72.448 16.232C72.448 17.576 72.768 18.708 73.408 19.628C74.048 20.548 74.94 21.248 76.084 21.728ZM82.3 19.604C81.636 19.9 80.888 20.048 80.056 20.048C79.208 20.048 78.448 19.9 77.776 19.604C77.104 19.308 76.576 18.876 76.192 18.308C75.808 17.74 75.616 17.048 75.616 16.232C75.616 15.4 75.812 14.696 76.204 14.12C76.596 13.544 77.128 13.104 77.8 12.8C78.472 12.496 79.224 12.344 80.056 12.344C80.904 12.344 81.656 12.496 82.312 12.8C82.968 13.104 83.488 13.548 83.872 14.132C84.256 14.716 84.448 15.416 84.448 16.232C84.448 17.048 84.256 17.74 83.872 18.308C83.488 18.876 82.964 19.308 82.3 19.604Z" fill="#F2F2F2"/>
<path fill-rule="evenodd" clip-rule="evenodd" d="M93.58 21.728C94.724 22.208 96.048 22.448 97.552 22.448C99.056 22.448 100.372 22.208 101.5 21.728C102.628 21.248 103.512 20.548 104.152 19.628C104.792 18.708 105.112 17.576 105.112 16.232C105.112 14.888 104.792 13.748 104.152 12.812C103.512 11.876 102.628 11.168 101.5 10.688C100.372 10.208 99.056 9.968 97.552 9.968C96.048 9.968 94.724 10.208 93.58 10.688C92.436 11.168 91.544 11.876 90.904 12.812C90.264 13.748 89.944 14.888 89.944 16.232C89.944 17.576 90.264 18.708 90.904 19.628C91.544 20.548 92.436 21.248 93.58 21.728ZM99.796 19.604C99.132 19.9 98.384 20.048 97.552 20.048C96.704 20.048 95.944 19.9 95.272 19.604C94.6 19.308 94.072 18.876 93.688 18.308C93.304 17.74 93.112 17.048 93.112 16.232C93.112 15.4 93.308 14.696 93.7 14.12C94.092 13.544 94.624 13.104 95.296 12.8C95.968 12.496 96.72 12.344 97.552 12.344C98.4 12.344 99.152 12.496 99.808 12.8C100.464 13.104 100.984 13.548 101.368 14.132C101.752 14.716 101.944 15.416 101.944 16.232C101.944 17.048 101.752 17.74 101.368 18.308C100.984 18.876 100.46 19.308 99.796 19.604Z" fill="#F2F2F2"/>
<path fill-rule="evenodd" clip-rule="evenodd" d="M118.72 10.256C118.096 10.064 117.416 9.968 116.68 9.968C115.832 9.968 115.072 10.096 114.4 10.352C113.728 10.608 113.148 10.956 112.66 11.396C112.172 11.836 111.784 12.32 111.496 12.848C111.349 13.1178 111.229 13.3917 111.136 13.6699V10.232H108.016V22.16H111.136V15.0634C111.259 14.762 111.443 14.4675 111.688 14.18C112.104 13.692 112.648 13.288 113.32 12.968C113.992 12.648 114.744 12.488 115.576 12.488C116.68 12.488 117.476 12.724 117.964 13.196C118.452 13.668 118.696 14.408 118.696 15.416V22.16H121.816V14.864C121.816 14.016 121.688 13.284 121.432 12.668C121.176 12.052 120.816 11.544 120.352 11.144C119.888 10.744 119.344 10.448 118.72 10.256ZM111.136 15.0634V13.6699C111.047 13.9361 110.983 14.2061 110.944 14.48L110.968 15.704C110.994 15.4871 111.05 15.2735 111.136 15.0634Z" fill="#F2F2F2"/>
<path fill-rule="evenodd" clip-rule="evenodd" d="M145.288 7.256C144.12 6.84 142.664 6.632 140.92 6.632H132.04V22.16H140.92C142.584 22.16 143.996 21.948 145.156 21.524C146.316 21.1 147.252 20.524 147.964 19.796C148.676 19.068 149.196 18.232 149.524 17.288C149.852 16.344 150.016 15.36 150.016 14.336C150.016 13.312 149.868 12.336 149.572 11.408C149.276 10.48 148.78 9.66 148.084 8.948C147.388 8.236 146.456 7.672 145.288 7.256ZM140.848 19.424H135.232V9.368H140.848C142 9.368 142.956 9.504 143.716 9.776C144.476 10.048 145.08 10.416 145.528 10.88C145.976 11.344 146.296 11.872 146.488 12.464C146.68 13.056 146.776 13.68 146.776 14.336C146.776 14.992 146.68 15.624 146.488 16.232C146.296 16.84 145.976 17.384 145.528 17.864C145.08 18.344 144.476 18.724 143.716 19.004C142.956 19.284 142 19.424 140.848 19.424Z" fill="#F2F2F2"/>
<path d="M156.904 5V7.736H153.28V5H156.904Z" fill="#F20505"/>
<path d="M153.52 10.232H156.64V22.16H153.52V10.232Z" fill="#F2F2F2"/>
<path fill-rule="evenodd" clip-rule="evenodd" d="M166.312 20.336C165.389 20.336 164.545 20.2366 163.781 20.0378C164.108 20.034 164.448 20.0454 164.8 20.072L166.312 20.336ZM166.312 20.336C165.304 20.368 164.556 20.452 164.068 20.588C163.58 20.724 163.336 20.992 163.336 21.392C163.336 21.632 163.432 21.82 163.624 21.956C163.816 22.092 164.088 22.16 164.44 22.16H168.352C169.424 22.16 170.34 22.276 171.1 22.508C171.86 22.74 172.44 23.132 172.84 23.684C173.24 24.236 173.44 24.992 173.44 25.952V27.08H170.32V26.504C170.32 25.768 170.084 25.256 169.612 24.968C169.14 24.68 168.496 24.536 167.68 24.536H163.96C163.24 24.536 162.636 24.48 162.148 24.368C161.66 24.256 161.272 24.096 160.984 23.888C160.696 23.68 160.488 23.436 160.36 23.156C160.232 22.876 160.168 22.576 160.168 22.256C160.168 21.616 160.376 21.132 160.792 20.804C161.208 20.476 161.768 20.256 162.472 20.144C162.884 20.0785 163.32 20.0431 163.781 20.0378C163.471 19.9574 163.175 19.8608 162.892 19.748C161.908 19.356 161.144 18.776 160.6 18.008C160.056 17.24 159.784 16.312 159.784 15.224C159.784 14.152 160.048 13.224 160.576 12.44C161.104 11.656 161.86 11.048 162.844 10.616C163.828 10.184 164.984 9.968 166.312 9.968C166.68 9.968 167.036 9.992 167.38 10.04C167.724 10.088 168.064 10.152 168.4 10.232L174.424 10.256V12.608C173.608 12.624 172.78 12.524 171.94 12.308C171.404 12.1703 170.91 12.0245 170.455 11.8705C170.706 12.0259 170.949 12.1958 171.184 12.38C171.664 12.756 172.052 13.188 172.348 13.676C172.644 14.164 172.792 14.728 172.792 15.368C172.792 16.408 172.528 17.3 172 18.044C171.472 18.788 170.724 19.356 169.756 19.748C168.788 20.14 167.64 20.336 166.312 20.336ZM168.124 17.744C167.604 17.968 167 18.08 166.312 18.08C165.608 18.08 164.996 17.968 164.476 17.744C163.956 17.52 163.552 17.196 163.264 16.772C162.976 16.348 162.832 15.84 162.832 15.248C162.832 14.64 162.976 14.12 163.264 13.688C163.552 13.256 163.96 12.924 164.488 12.692C165.016 12.46 165.624 12.344 166.312 12.344C167.016 12.344 167.624 12.46 168.136 12.692C168.648 12.924 169.048 13.256 169.336 13.688C169.624 14.12 169.768 14.64 169.768 15.248C169.768 15.84 169.624 16.348 169.336 16.772C169.048 17.196 168.644 17.52 168.124 17.744Z" fill="#F2F2F2"/>
<path d="M180.64 5V7.736H177.016V5H180.64Z" fill="#F20505"/>
<path d="M177.256 10.232H180.376V22.16H177.256V10.232Z" fill="#F2F2F2"/>
<path fill-rule="evenodd" clip-rule="evenodd" d="M189.448 6.968H186.328V10.232H183.256V12.656H186.328V22.16H189.448V12.656H192.52V10.232H189.448V6.968ZM189.448 10.232H186.328V12.656H189.448V10.232Z" fill="#F2F2F2"/>
<path fill-rule="evenodd" clip-rule="evenodd" d="M200.752 22.424C199.568 22.424 198.492 22.164 197.524 21.644C196.556 21.124 195.788 20.396 195.22 19.46C194.652 18.524 194.368 17.44 194.368 16.208C194.368 14.944 194.656 13.848 195.232 12.92C195.808 11.992 196.588 11.268 197.572 10.748C198.556 10.228 199.672 9.968 200.92 9.968C202.296 9.968 203.404 10.244 204.244 10.796C205.084 11.348 205.696 12.096 206.08 13.04C206.181 13.2892 206.269 13.5463 206.344 13.8111V16.208C206.344 15.392 206.156 14.7 205.78 14.132C205.404 13.564 204.876 13.132 204.196 12.836C203.516 12.54 202.704 12.392 201.76 12.392C200.432 12.392 199.4 12.74 198.664 13.436C197.928 14.132 197.56 15.056 197.56 16.208C197.56 16.976 197.736 17.644 198.088 18.212C198.44 18.78 198.932 19.224 199.564 19.544C200.196 19.864 200.928 20.024 201.76 20.024C202.704 20.024 203.52 19.864 204.208 19.544C204.896 19.224 205.424 18.776 205.792 18.2C206.16 17.624 206.344 16.96 206.344 16.208V18.2766C206.336 18.3031 206.328 18.3295 206.32 18.356C206.096 19.084 205.752 19.756 205.288 20.372C204.824 20.988 204.216 21.484 203.464 21.86C202.712 22.236 201.808 22.424 200.752 22.424ZM206.344 18.2766C206.552 17.5759 206.656 16.8864 206.656 16.208C206.656 15.3484 206.552 14.5494 206.344 13.8111V10.232H209.464V22.16H206.56L206.5 21.692C206.46 21.38 206.424 20.984 206.392 20.504C206.36 20.024 206.344 19.552 206.344 19.088V18.2766Z" fill="#F2F2F2"/>
<path d="M213.136 5.43201H216.256V22.16H213.136V5.43201Z" fill="#F2F2F2"/>
<path fill-rule="evenodd" clip-rule="evenodd" d="M232.648 6.632L225.352 22.16H228.808L230.34 18.776H238.448L239.992 22.16H243.472L236.104 6.632H232.648ZM237.233 16.112H239.488V18.776H238.448L237.233 16.112ZM234.379 9.8576L237.233 16.112H231.547L234.379 9.8576ZM231.547 16.112L230.34 18.776H229.216V16.112H231.547Z" fill="#F2F2F2"/>
<path fill-rule="evenodd" clip-rule="evenodd" d="M251.728 20.336C250.805 20.336 249.961 20.2366 249.197 20.0378C249.524 20.034 249.864 20.0454 250.216 20.072L251.728 20.336ZM251.728 20.336C250.72 20.368 249.972 20.452 249.484 20.588C248.996 20.724 248.752 20.992 248.752 21.392C248.752 21.632 248.848 21.82 249.04 21.956C249.232 22.092 249.504 22.16 249.856 22.16H253.768C254.84 22.16 255.756 22.276 256.516 22.508C257.276 22.74 257.856 23.132 258.256 23.684C258.656 24.236 258.856 24.992 258.856 25.952V27.08H255.736V26.504C255.736 25.768 255.5 25.256 255.028 24.968C254.556 24.68 253.912 24.536 253.096 24.536H249.376C248.656 24.536 248.052 24.48 247.564 24.368C247.076 24.256 246.688 24.096 246.4 23.888C246.112 23.68 245.904 23.436 245.776 23.156C245.648 22.876 245.584 22.576 245.584 22.256C245.584 21.616 245.792 21.132 246.208 20.804C246.624 20.476 247.184 20.256 247.888 20.144C248.3 20.0785 248.736 20.0431 249.197 20.0378C248.887 19.9574 248.591 19.8608 248.308 19.748C247.324 19.356 246.56 18.776 246.016 18.008C245.472 17.24 245.2 16.312 245.2 15.224C245.2 14.152 245.464 13.224 245.992 12.44C246.52 11.656 247.276 11.048 248.26 10.616C249.244 10.184 250.4 9.968 251.728 9.968C252.096 9.968 252.452 9.992 252.796 10.04C253.14 10.088 253.48 10.152 253.816 10.232L259.84 10.256V12.608C259.024 12.624 258.196 12.524 257.356 12.308C256.82 12.1703 256.326 12.0245 255.871 11.8705C256.122 12.0259 256.365 12.1958 256.6 12.38C257.08 12.756 257.468 13.188 257.764 13.676C258.06 14.164 258.208 14.728 258.208 15.368C258.208 16.408 257.944 17.3 257.416 18.044C256.888 18.788 256.14 19.356 255.172 19.748C254.204 20.14 253.056 20.336 251.728 20.336ZM253.54 17.744C253.02 17.968 252.416 18.08 251.728 18.08C251.024 18.08 250.412 17.968 249.892 17.744C249.372 17.52 248.968 17.196 248.68 16.772C248.392 16.348 248.248 15.84 248.248 15.248C248.248 14.64 248.392 14.12 248.68 13.688C248.968 13.256 249.376 12.924 249.904 12.692C250.432 12.46 251.04 12.344 251.728 12.344C252.432 12.344 253.04 12.46 253.552 12.692C254.064 12.924 254.464 13.256 254.752 13.688C255.04 14.12 255.184 14.64 255.184 15.248C255.184 15.84 255.04 16.348 254.752 16.772C254.464 17.196 254.06 17.52 253.54 17.744Z" fill="#F2F2F2"/>
<path fill-rule="evenodd" clip-rule="evenodd" d="M276.16 18.2H273.136C272.944 18.744 272.516 19.188 271.852 19.532C271.188 19.876 270.36 20.048 269.368 20.048C268.472 20.048 267.7 19.904 267.052 19.616C266.404 19.328 265.892 18.936 265.516 18.44C265.14 17.944 264.912 17.392 264.832 16.784H276.208C276.288 15.232 276.076 13.956 275.572 12.956C275.068 11.956 274.296 11.208 273.256 10.712C272.216 10.216 270.912 9.968 269.344 9.968C267.808 9.968 266.468 10.216 265.324 10.712C264.18 11.208 263.288 11.924 262.648 12.86C262.008 13.796 261.688 14.92 261.688 16.232C261.688 17.544 262.016 18.664 262.672 19.592C263.328 20.52 264.24 21.228 265.408 21.716C266.576 22.204 267.92 22.448 269.44 22.448C270.8 22.448 271.952 22.264 272.896 21.896C273.84 21.528 274.588 21.024 275.14 20.384C275.692 19.744 276.032 19.016 276.16 18.2ZM266.392 13.1C267.112 12.596 268.048 12.344 269.2 12.344C270.368 12.344 271.292 12.58 271.972 13.052C272.652 13.524 273.032 14.16 273.112 14.96H265C265.208 14.224 265.672 13.604 266.392 13.1Z" fill="#F2F2F2"/>
<path fill-rule="evenodd" clip-rule="evenodd" d="M289.84 10.256C289.216 10.064 288.536 9.968 287.8 9.968C286.952 9.968 286.192 10.096 285.52 10.352C284.848 10.608 284.268 10.956 283.78 11.396C283.292 11.836 282.904 12.32 282.616 12.848C282.469 13.1178 282.349 13.3917 282.256 13.6699V10.232H279.136V22.16H282.256V15.0634C282.379 14.762 282.563 14.4675 282.808 14.18C283.224 13.692 283.768 13.288 284.44 12.968C285.112 12.648 285.864 12.488 286.696 12.488C287.8 12.488 288.596 12.724 289.084 13.196C289.572 13.668 289.816 14.408 289.816 15.416V22.16H292.936V14.864C292.936 14.016 292.808 13.284 292.552 12.668C292.296 12.052 291.936 11.544 291.472 11.144C291.008 10.744 290.464 10.448 289.84 10.256ZM282.256 15.0634V13.6699C282.167 13.9361 282.103 14.2061 282.064 14.48L282.088 15.704C282.114 15.4871 282.17 15.2735 282.256 15.0634Z" fill="#F2F2F2"/>
<path d="M310.528 17.456C310.448 18.496 310.116 19.392 309.532 20.144C308.948 20.896 308.144 21.468 307.12 21.86C306.096 22.252 304.88 22.448 303.472 22.448C302 22.448 300.684 22.212 299.524 21.74C298.364 21.268 297.452 20.572 296.788 19.652C296.124 18.732 295.792 17.592 295.792 16.232C295.792 14.872 296.124 13.728 296.788 12.8C297.452 11.872 298.364 11.168 299.524 10.688C300.684 10.208 302 9.968 303.472 9.968C304.88 9.968 306.088 10.164 307.096 10.556C308.104 10.948 308.9 11.512 309.484 12.248C310.068 12.984 310.408 13.872 310.504 14.912H307.648C307.376 14.112 306.872 13.488 306.136 13.04C305.4 12.592 304.512 12.368 303.472 12.368C302.64 12.368 301.884 12.512 301.204 12.8C300.524 13.088 299.98 13.516 299.572 14.084C299.164 14.652 298.96 15.368 298.96 16.232C298.96 17.08 299.16 17.788 299.56 18.356C299.96 18.924 300.504 19.348 301.192 19.628C301.88 19.908 302.64 20.048 303.472 20.048C304.592 20.048 305.508 19.824 306.22 19.376C306.932 18.928 307.416 18.288 307.672 17.456H310.528Z" fill="#F2F2F2"/>
<path fill-rule="evenodd" clip-rule="evenodd" d="M315.664 10.232H312.352L318.082 22.0495L315.448 26.96H318.688L326.944 10.232H323.608L319.612 18.9906L315.664 10.232ZM319.612 18.9906L318.976 20.384L318.082 22.0495L318.136 22.16L320.824 21.68L319.612 18.9906Z" fill="#F2F2F2"/>
</svg>
