<svg width="30" height="20" viewBox="0 0 30 20" fill="none" xmlns="http://www.w3.org/2000/svg">
<path fill-rule="evenodd" clip-rule="evenodd" d="M0.399292 2.37704C0.665514 2.64418 0.995375 2.77775 1.38888 2.77775H28.6111C29.0046 2.77775 29.3345 2.64581 29.6007 2.38192C29.8669 2.11803 30 1.78864 30 1.39375C30 0.998861 29.8669 0.667847 29.6007 0.400708C29.3345 0.133569 29.0046 0 28.6111 0H1.38888C0.995375 0 0.665514 0.131944 0.399292 0.395833C0.133097 0.659722 0 0.989111 0 1.384C0 1.77889 0.133097 2.1099 0.399292 2.37704ZM1.38888 11.3889C0.995375 11.3889 0.665514 11.2553 0.399292 10.9882C0.133097 10.721 0 10.39 0 9.99512C0 9.60024 0.133097 9.27085 0.399292 9.00696C0.665514 8.74307 0.995375 8.61112 1.38888 8.61112H28.6111C29.0046 8.61112 29.3345 8.74469 29.6007 9.01183C29.8669 9.27897 30 9.60999 30 10.0049C30 10.3998 29.8669 10.7292 29.6007 10.993C29.3345 11.2569 29.0046 11.3889 28.6111 11.3889H1.38888ZM1.38888 20C0.995375 20 0.665514 19.8664 0.399292 19.5993C0.133097 19.3322 0 19.0011 0 18.6063C0 18.2114 0.133097 17.882 0.399292 17.6181C0.665514 17.3542 0.995375 17.2222 1.38888 17.2222H28.6111C29.0046 17.2222 29.3345 17.3558 29.6007 17.623C29.8669 17.8901 30 18.2211 30 18.616C30 19.0109 29.8669 19.3403 29.6007 19.6042C29.3345 19.8681 29.0046 20 28.6111 20H1.38888Z" fill="#F2F2F2"/>
</svg>
