<svg width="22" height="20" viewBox="0 0 22 20" fill="none" xmlns="http://www.w3.org/2000/svg">
<path fill-rule="evenodd" clip-rule="evenodd" d="M21.3673 11.0228L1.45212 19.9093C1.10639 20.0559 0.777935 20.0248 0.466761 19.8158C0.155587 19.6068 0 19.3044 0 18.9085V1.09153C0 0.695598 0.155587 0.39315 0.466761 0.184186C0.777935 -0.0247779 1.10639 -0.0559355 1.45212 0.0907133L21.3673 8.97718C21.7891 9.17514 22 9.51608 22 10C22 10.4839 21.7891 10.8249 21.3673 11.0228ZM2.10891 17.1775L18.2763 10L2.10891 2.75664L2.07447 2.74121V7.97636L2.10891 7.98564L9.58416 10L2.10891 11.9706L2.07447 11.9797V17.1928L2.10891 17.1775Z" fill="#F2F2F2"/>
</svg>
