<svg width="34" height="34" viewBox="0 0 34 34" fill="none" xmlns="http://www.w3.org/2000/svg">
<path fill-rule="evenodd" clip-rule="evenodd" d="M17 34C14.6483 34 12.4383 33.5538 10.37 32.6613C8.30167 31.7688 6.5025 30.5575 4.9725 29.0275C3.4425 27.4975 2.23125 25.6983 1.33875 23.63C0.44625 21.5617 0 19.3517 0 17C0 14.6483 0.44625 12.4383 1.33875 10.37C2.23125 8.30167 3.4425 6.5025 4.9725 4.9725C6.5025 3.4425 8.30167 2.23125 10.37 1.33875C12.4383 0.44625 14.6483 0 17 0C19.3517 0 21.5617 0.44625 23.63 1.33875C25.6983 2.23125 27.4975 3.4425 29.0275 4.9725C30.5575 6.5025 31.7688 8.30167 32.6613 10.37C33.5538 12.4383 34 14.6483 34 17C34 19.3517 33.5538 21.5617 32.6613 23.63C31.7688 25.6983 30.5575 27.4975 29.0275 29.0275C27.4975 30.5575 25.6983 31.7688 23.63 32.6613C21.5617 33.5538 19.3517 34 17 34ZM17 31.1667C20.9549 31.1667 24.3047 29.7943 27.0495 27.0495C29.7943 24.3047 31.1667 20.9549 31.1667 17C31.1667 13.0451 29.7943 9.69531 27.0495 6.95049C24.3047 4.2057 20.9549 2.8333 17 2.8333C13.0451 2.8333 9.69531 4.2057 6.95049 6.95049C4.2057 9.69531 2.8333 13.0451 2.8333 17C2.8333 20.9549 4.2057 24.3047 6.95049 27.0495C9.69531 29.7943 13.0451 31.1667 17 31.1667ZM9.775 24.225C11.7583 26.2083 14.1667 27.2 17 27.2C19.8333 27.2 22.2417 26.2083 24.225 24.225C26.2083 22.2417 27.2 19.8333 27.2 17C27.2 14.1667 26.2083 11.7583 24.225 9.775C22.2417 7.79167 19.8333 6.8 17 6.8C14.1667 6.8 11.7583 7.79167 9.775 9.775C7.79167 11.7583 6.8 14.1667 6.8 17C6.8 19.8333 7.79167 22.2417 9.775 24.225ZM17 24.3667C19.04 24.3667 20.7778 23.6489 22.2133 22.2133C23.6489 20.7778 24.3667 19.04 24.3667 17C24.3667 14.96 23.6489 13.2222 22.2133 11.7867C20.7778 10.3511 19.04 9.6333 17 9.6333C14.96 9.6333 13.2222 10.3511 11.7867 11.7867C10.3511 13.2222 9.6333 14.96 9.6333 17C9.6333 19.04 10.3511 20.7778 11.7867 22.2133C13.2222 23.6489 14.96 24.3667 17 24.3667ZM14.5988 19.4013C15.2646 20.0671 16.065 20.4 17 20.4C17.935 20.4 18.7354 20.0671 19.4013 19.4013C20.0671 18.7354 20.4 17.935 20.4 17C20.4 16.065 20.0671 15.2646 19.4013 14.5988C18.7354 13.9329 17.935 13.6 17 13.6C16.065 13.6 15.2646 13.9329 14.5988 14.5988C13.9329 15.2646 13.6 16.065 13.6 17C13.6 17.935 13.9329 18.7354 14.5988 19.4013Z" fill="#F2F2F2"/>
</svg>
