<svg width="40" height="40" viewBox="0 0 40 40" xmlns="http://www.w3.org/2000/svg">
    <g fill="none" fill-rule="evenodd">
        <path d="M0 0h40v40H0z"/>
        <path d="m17.672 22.587.105 1.226c.022.182.092.33.21.443a.61.61 0 0 0 .439.17h1.427c.172 0 .32-.056.44-.17a.703.703 0 0 0 .213-.443l.104-1.226c.28-.063.54-.169.78-.32.24-.15.453-.319.637-.507l1.18.44a.596.596 0 0 0 .447.013.644.644 0 0 0 .349-.302l.692-1.208a.693.693 0 0 0 .094-.45.66.66 0 0 0-.235-.404l-.874-.676a3.146 3.146 0 0 0 0-1.973l.874-.676a.66.66 0 0 0 .235-.404.693.693 0 0 0-.094-.45l-.692-1.207a.644.644 0 0 0-.35-.303.596.596 0 0 0-.445.013l-1.18.44a3.534 3.534 0 0 0-.655-.489 3.534 3.534 0 0 0-.763-.337l-.104-1.227a.706.706 0 0 0-.211-.443.61.61 0 0 0-.438-.17H18.43a.617.617 0 0 0-.44.17.703.703 0 0 0-.213.443l-.105 1.227c-.262.08-.517.192-.763.337a3.533 3.533 0 0 0-.654.49l-1.18-.44a.596.596 0 0 0-.446-.014.644.644 0 0 0-.35.303l-.692 1.208a.692.692 0 0 0-.093.449.66.66 0 0 0 .234.404l.874.676a3.146 3.146 0 0 0 0 1.973l-.874.676a.66.66 0 0 0-.234.404c-.022.151.01.301.093.45l.693 1.208c.084.148.2.249.349.302a.596.596 0 0 0 .446-.013l1.18-.44c.185.188.397.357.637.508.24.15.5.256.78.319zm1.472-1.734a2.517 2.517 0 0 1-1.859-.777 2.585 2.585 0 0 1-.767-1.886c0-.74.254-1.37.764-1.89.51-.52 1.128-.78 1.856-.78.728 0 1.348.259 1.86.777.511.518.767 1.147.767 1.887a2.6 2.6 0 0 1-.764 1.89c-.51.52-1.129.78-1.857.78zM9.722 29.12a14.763 14.763 0 0 1-3.482-4.86A14.23 14.23 0 0 1 5 18.4c0-4 1.377-7.4 4.132-10.2 2.755-2.8 6.1-4.2 10.035-4.2 3.28 0 6.186.98 8.717 2.94 2.532 1.96 4.178 4.513 4.94 7.66l2.124 8.547c.114.417.04.797-.223 1.14a1.256 1.256 0 0 1-1.049.513h-3.49v5.333a2.59 2.59 0 0 1-.77 1.884 2.506 2.506 0 0 1-1.853.783H23.89v1.867c0 .377-.126.694-.379.95a1.265 1.265 0 0 1-.937.383 1.25 1.25 0 0 1-.934-.383 1.307 1.307 0 0 1-.374-.95v-3.2c0-.378.126-.695.378-.95.25-.256.562-.384.934-.384h4.985v-6.666c0-.378.126-.695.377-.95.252-.256.563-.384.935-.384h3.096l-1.68-6.866c-.62-2.534-1.967-4.6-4.04-6.2-2.072-1.6-4.434-2.4-7.084-2.4-3.2 0-5.925 1.129-8.172 3.386-2.248 2.258-3.371 5.01-3.371 8.255a11.6 11.6 0 0 0 1.012 4.784 12.583 12.583 0 0 0 2.87 4.028l.84.8v6.747c0 .377-.126.694-.378.95a1.265 1.265 0 0 1-.938.383 1.25 1.25 0 0 1-.934-.383 1.307 1.307 0 0 1-.374-.95V29.12z" fill="#D84000" fill-rule="nonzero"/>
    </g>
</svg>
