<svg width="40" height="40" viewBox="0 0 40 40" xmlns="http://www.w3.org/2000/svg">
    <g fill="none" fill-rule="evenodd">
        <path d="M0 0h40v40H0z"/>
        <path d="M14.922 3c2.063 0 3.743 1.696 3.742 3.782 0 .6-.14 1.169-.388 1.674l1.976 1.996a8.485 8.485 0 0 1 5.161-1.746c4.735 0 8.587 3.892 8.587 8.677 0 4.784-3.852 8.677-8.587 8.677a8.471 8.471 0 0 1-4.631-1.373l-2.548 2.575c.508.937.797 2.012.797 3.153 0 3.629-2.922 6.585-6.514 6.585C8.924 37 6 34.044 6 30.415c0-3.63 2.924-6.584 6.517-6.584a6.42 6.42 0 0 1 3.12.806l2.548-2.575a8.693 8.693 0 0 1-1.359-4.68 8.69 8.69 0 0 1 1.45-4.82l-2.171-2.193c-.372.125-.77.193-1.183.193-2.064 0-3.743-1.696-3.743-3.78C11.179 4.696 12.858 3 14.922 3z" fill="#D84000" fill-rule="nonzero"/>
    </g>
</svg>
