<svg width="40" height="40" viewBox="0 0 40 40" xmlns="http://www.w3.org/2000/svg">
    <g fill="none" fill-rule="evenodd">
        <path d="M0 0h40v40H0z"/>
        <path d="M24.778 18.222h8.555c.394 0 .724-.133.99-.4.266-.265.4-.595.4-.989v-5.166c0-.394-.134-.724-.4-.99a1.344 1.344 0 0 0-.99-.4h-8.555c-.394 0-.724.134-.99.4s-.4.596-.4.99v5.166c0 .394.134.724.4.99s.596.4.99.4zm4.278-3.389 3.222-2.389a.601.601 0 0 1 .69-.062.632.632 0 0 1 .365.604c0 .028-.088.213-.264.556l-3.166 2.347a1.347 1.347 0 0 1-1.64 0l-3.221-2.347c-.047-.047-.135-.232-.264-.556a.63.63 0 0 1 .375-.604.63.63 0 0 1 .708.062l3.195 2.39zM2.778 35c-.75 0-1.4-.275-1.952-.826C.276 33.623 0 32.972 0 32.222V7.778c0-.75.275-1.4.826-1.952C1.377 5.276 2.028 5 2.778 5h34.444c.75 0 1.4.275 1.952.826.55.551.826 1.202.826 1.952v24.444c0 .75-.275 1.4-.826 1.952-.551.55-1.202.826-1.952.826H2.778zm22.472-2.778h11.972V7.778H2.778v24.444h.25c1.203-1.972 2.782-3.525 4.736-4.66 1.954-1.134 4.079-1.7 6.375-1.7 2.296 0 4.421.566 6.375 1.7 1.954 1.135 3.532 2.688 4.736 4.66zm-11.111-8.889c1.389 0 2.57-.486 3.542-1.458s1.458-2.153 1.458-3.542c0-1.389-.486-2.57-1.458-3.541-.973-.973-2.153-1.459-3.542-1.459-1.389 0-2.57.486-3.542 1.459-.972.972-1.458 2.152-1.458 3.541 0 1.39.486 2.57 1.458 3.542s2.153 1.458 3.542 1.458zM6.5 32.223h15.278a10.293 10.293 0 0 0-3.46-2.643 9.7 9.7 0 0 0-4.18-.941 9.587 9.587 0 0 0-4.166.944 10.683 10.683 0 0 0-3.472 2.64zm7.639-11.667c-.63 0-1.158-.213-1.583-.64-.426-.425-.64-.953-.64-1.583s.214-1.157.64-1.583c.425-.426.953-.639 1.583-.639s1.157.213 1.583.639c.426.426.64.954.64 1.583 0 .63-.214 1.158-.64 1.584-.426.426-.953.639-1.583.639z" fill="#D84000" fill-rule="nonzero"/>
    </g>
</svg>
