<svg width="40" height="40" viewBox="0 0 40 40" xmlns="http://www.w3.org/2000/svg">
    <g fill="none" fill-rule="evenodd">
        <path d="M0 0h40v40H0z"/>
        <path d="M7.567 35c-.761 0-1.422-.275-1.981-.826-.56-.551-.839-1.202-.839-1.952V18.39A4.973 4.973 0 0 1 3.203 16c-.286-.954-.27-1.935.05-2.944l1.804-5.64c.226-.74.623-1.328 1.192-1.763A3.147 3.147 0 0 1 8.215 5h23.432c.78 0 1.462.22 2.045.66.583.44.991 1.025 1.226 1.757l1.833 5.639c.32 1.009.332 1.986.035 2.93a5.25 5.25 0 0 1-1.558 2.403v13.833c0 .75-.28 1.4-.838 1.952-.56.55-1.22.826-1.981.826H7.567zM23.78 16.944c.8 0 1.453-.261 1.96-.784.508-.523.71-1.141.606-1.854l-1.015-6.528h-3.92v6.639c0 .676.226 1.266.678 1.77a2.175 2.175 0 0 0 1.691.757zm-7.81 0c.742 0 1.365-.247 1.868-.743.503-.495.754-1.09.754-1.784v-6.64h-3.92l-1.014 6.529c-.113.703.068 1.319.542 1.847a2.283 2.283 0 0 0 1.77.791zm-7.642 0c.62 0 1.159-.213 1.615-.638a2.57 2.57 0 0 0 .81-1.584l1.043-6.944H7.877l-1.861 5.916c-.244.76-.139 1.491.317 2.195.456.704 1.121 1.055 1.995 1.055zm23.32 0c.874 0 1.546-.347 2.016-1.041.47-.695.578-1.43.324-2.209l-1.89-5.916h-3.89l1.043 6.944a2.57 2.57 0 0 0 .81 1.584c.456.425.985.638 1.586.638zM7.566 32.222h24.842V19.667c-.028.037-.12.055-.275.055h-.487a4.828 4.828 0 0 1-2.009-.416c-.615-.278-1.224-.713-1.825-1.306a5.008 5.008 0 0 1-1.706 1.264 5.186 5.186 0 0 1-2.186.458c-.817 0-1.539-.125-2.164-.375-.625-.25-1.21-.643-1.755-1.18-.442.5-.985.884-1.628 1.152-.644.269-1.361.403-2.15.403-.856 0-1.62-.148-2.292-.444A4.957 4.957 0 0 1 12.192 18c-.65.583-1.286 1.016-1.911 1.299a4.691 4.691 0 0 1-1.953.423h-.444c-.146 0-.251-.018-.317-.055v12.555zm24.842.03H7.567h24.842z" fill="#D84000" fill-rule="nonzero"/>
    </g>
</svg>
