<svg width="40" height="40" viewBox="0 0 40 40" xmlns="http://www.w3.org/2000/svg">
    <g fill="none" fill-rule="evenodd">
        <path d="M0 0h40v40H0z"/>
        <path d="M16.912 34.97c-3.157-.658-5.765-2.193-7.824-4.606S6 25.161 6 21.993c0-1.844.384-3.587 1.15-5.232a12.692 12.692 0 0 1 3.264-4.286c.262-.222.578-.331.947-.327a1.4 1.4 0 0 1 .976.41c.301.288.445.626.43 1.015-.015.389-.192.74-.532 1.056a9.913 9.913 0 0 0-2.447 3.32 9.636 9.636 0 0 0-.874 4.044c0 2.491.794 4.675 2.381 6.55 1.588 1.877 3.611 3.106 6.068 3.69.34.074.624.245.852.514.229.269.343.565.343.89 0 .444-.165.798-.496 1.062-.33.264-.713.354-1.15.271zm6.206 0c-.437.083-.821-.01-1.151-.278-.33-.269-.496-.625-.496-1.07 0-.315.114-.606.343-.875.228-.269.512-.44.852-.514 2.477-.593 4.5-1.825 6.068-3.696 1.568-1.871 2.352-4.053 2.352-6.544 0-2.946-1.073-5.442-3.22-7.49-2.146-2.046-4.763-3.07-7.851-3.07h-.627l1.37 1.306c.262.25.393.574.393.973 0 .398-.131.722-.393.972a1.46 1.46 0 0 1-1.05.403c-.417 0-.757-.134-1.02-.403l-3.874-3.668a1.327 1.327 0 0 1-.328-.458 1.369 1.369 0 0 1-.095-.514c0-.186.032-.357.095-.514.063-.158.172-.31.328-.459l3.875-3.696c.262-.25.602-.375 1.02-.375.417 0 .767.125 1.049.375.262.269.393.602.393 1 0 .399-.131.723-.393.973l-1.37 1.306h.627c3.904 0 7.21 1.297 9.92 3.89C32.645 15.139 34 18.289 34 21.994c0 3.158-1.025 5.946-3.074 8.364-2.05 2.418-4.652 3.955-7.808 4.613z" fill="#D84000" fill-rule="nonzero"/>
    </g>
</svg>
