<svg width="40" height="40" viewBox="0 0 40 40" xmlns="http://www.w3.org/2000/svg">
    <g fill="none" fill-rule="evenodd">
        <path d="M0 0h40v40H0z"/>
        <path d="M13.619 36a2.921 2.921 0 0 1-2.137-.88 2.874 2.874 0 0 1-.885-2.115c0-.823.297-1.527.89-2.11a2.95 2.95 0 0 1 2.143-.873c.835 0 1.547.293 2.137.88.59.586.886 1.29.886 2.115 0 .823-.297 1.526-.892 2.109A2.95 2.95 0 0 1 13.62 36zm16.221 0a2.921 2.921 0 0 1-2.137-.88 2.874 2.874 0 0 1-.885-2.115c0-.823.297-1.527.891-2.11a2.95 2.95 0 0 1 2.143-.873c.834 0 1.546.293 2.136.88.59.586.886 1.29.886 2.115 0 .823-.297 1.526-.891 2.109A2.95 2.95 0 0 1 29.84 36zM11.76 9.845l4.27 8.754h11.572l4.866-8.754H11.76zm-1.326-2.669h23.902c.62 0 1.094.278 1.418.834.324.556.328 1.114.013 1.675l-5.57 9.901a3.457 3.457 0 0 1-1.17 1.228 2.933 2.933 0 0 1-1.587.454H15.22l-2.11 3.843h18.412c.383 0 .704.128.963.385.26.257.389.575.389.954 0 .38-.13.696-.389.95-.259.253-.58.38-.963.38H13.354c-1.162 0-2.014-.425-2.555-1.275-.54-.85-.545-1.759-.013-2.729l2.46-4.457L7.19 6.67H5.352c-.383 0-.704-.128-.963-.385A1.29 1.29 0 0 1 4 5.33c0-.38.13-.696.389-.95.259-.253.58-.38.963-.38h2.717c.261 0 .502.066.722.198.22.133.384.32.494.563l1.15 2.415zm5.597 11.453h11.571-11.571z" fill="#D84000" fill-rule="nonzero"/>
    </g>
</svg>
