<svg width="40" height="40" viewBox="0 0 40 40" xmlns="http://www.w3.org/2000/svg">
    <g fill="none" fill-rule="evenodd">
        <path d="M0 0h40v40H0z"/>
        <path d="M31.9 21.411a1.37 1.37 0 0 1-1.01-.407 1.37 1.37 0 0 1-.407-1.009c0-.401.136-.736.408-1.004a1.38 1.38 0 0 1 1.009-.402h3.683c.402 0 .738.135 1.01.407.271.271.407.608.407 1.009 0 .401-.136.736-.407 1.004a1.38 1.38 0 0 1-1.01.402H31.9zm-.453 11.29-2.975-2.2a1.398 1.398 0 0 1-.567-.927c-.057-.373.038-.723.283-1.05.246-.32.556-.508.93-.564.375-.057.726.037 1.054.282l2.975 2.202c.32.244.51.553.566.926.057.373-.037.723-.283 1.05-.246.32-.556.508-.93.564-.375.057-.726-.038-1.053-.282zm-1.19-20.971c-.328.244-.68.338-1.054.282a1.405 1.405 0 0 1-.93-.565 1.33 1.33 0 0 1-.283-1.044 1.4 1.4 0 0 1 .567-.931l2.89-2.174c.327-.244.678-.339 1.053-.282.374.056.684.245.93.564.246.32.34.668.283 1.045a1.4 1.4 0 0 1-.566.931l-2.89 2.174zM8.383 31.855v-6.774h-2.55c-.779 0-1.446-.277-2-.83A2.713 2.713 0 0 1 3 22.259v-4.516c0-.776.277-1.44.832-1.994a2.733 2.733 0 0 1 2.001-.829H13.2l6.36-3.81c.473-.283.948-.283 1.425-.002.477.281.715.69.715 1.23v15.326c0 .54-.238.949-.715 1.23s-.952.28-1.424-.002l-6.361-3.81h-1.983v6.774H8.383zM23.4 25.673V14.327a7.737 7.737 0 0 1 1.849 2.476c.467.974.701 2.04.701 3.197s-.234 2.223-.701 3.197a7.737 7.737 0 0 1-1.849 2.476zm-4.533-.508v-10.33l-4.902 2.907H5.833v4.516h8.132l4.902 2.907z" fill="#D84000" fill-rule="nonzero"/>
    </g>
</svg>
