<svg width="40" height="40" viewBox="0 0 40 40" xmlns="http://www.w3.org/2000/svg">
    <g fill="none" fill-rule="evenodd">
        <path d="M0 0h40v40H0z"/>
        <path d="m6.667 7 3.04 6.283h5.066L11.733 7h3.44l3.04 6.283h5.067L20.24 7h3.44l3.04 6.283h5.067L28.747 7h4.586c.72 0 1.345.269 1.874.806.529.537.793 1.171.793 1.902v20.584c0 .73-.264 1.365-.793 1.902-.53.537-1.154.806-1.874.806H6.667c-.72 0-1.345-.269-1.874-.806C4.264 31.657 4 31.023 4 30.292V9.708c0-.73.264-1.365.793-1.902C5.323 7.269 5.947 7 6.667 7zm0 8.992v14.3h26.666v-14.3H6.667zm.03 0v14.3-14.3z" fill="#D84000" fill-rule="nonzero"/>
    </g>
</svg>
