<svg width="40" height="40" viewBox="0 0 40 40" xmlns="http://www.w3.org/2000/svg">
    <g fill="none" fill-rule="evenodd">
        <path d="M0 0h40v40H0z"/>
        <path d="M8.339 30.556h9.492v-7.223H8.339v7.223zm0-8.89h9.492V9.445H8.339v12.223zm11.119 8.89h9.491V18.333h-9.491v12.223zm0-13.89h9.491V9.445h-9.491v7.223zM6.712 35c-.732 0-1.367-.275-1.905-.826C4.269 33.623 4 32.972 4 32.222V7.778c0-.75.269-1.4.807-1.952C5.345 5.276 5.98 5 6.712 5h23.864c.733 0 1.368.275 1.905.826.538.551.807 1.202.807 1.952v2.778H36v2.777h-2.712v5.278H36v2.778h-2.712v5.278H36v2.777h-2.712v2.778c0 .75-.269 1.4-.807 1.952-.537.55-1.172.826-1.905.826H6.712zm0-2.778h23.864V7.778H6.712v24.444zm.03-24.444v24.444V7.778z" fill="#D84000" fill-rule="nonzero"/>
    </g>
</svg>
