<svg width="40" height="40" viewBox="0 0 40 40" xmlns="http://www.w3.org/2000/svg">
    <g fill="none" fill-rule="evenodd">
        <path d="M0 0h40v40H0z"/>
        <path d="M6.667 33c-.72 0-1.345-.269-1.874-.806C4.264 31.657 4 31.023 4 30.292V9.708c0-.73.264-1.365.793-1.902C5.323 7.269 5.947 7 6.667 7h26.666c.72 0 1.345.269 1.874.806.529.537.793 1.171.793 1.902v20.584c0 .73-.264 1.365-.793 1.902-.53.537-1.154.806-1.874.806H6.667zm0-2.708H24.56v-6.31H6.667v6.31zm20.56 0h6.106v-15.33h-6.106v15.33zm-20.56-9.02H24.56v-6.31H6.667v6.31z" fill="#D84000" fill-rule="nonzero"/>
    </g>
</svg>
