<svg width="40" height="40" viewBox="0 0 40 40" xmlns="http://www.w3.org/2000/svg">
    <g fill="none" fill-rule="evenodd">
        <path d="M0 0h40v40H0z"/>
        <path d="M20 4c8.837 0 16 7.163 16 16s-7.163 16-16 16S4 28.837 4 20 11.163 4 20 4zm8.99 10.74c-2.4 0-3.66 1.63-4.3 3.36h.01l-1.45 4.57c0-.35-1-7.93-1-7.93-2.3 0-3.52 1.63-4.16 3.36l-1.77 4.58c0-.148-.05-1.076-.106-2.054l-.025-.453c-.06-1.052-.119-2.033-.119-2.033a3.74 3.74 0 0 0-3.63-3.39l1.88 11.48c2.4 0 3.7-1.63 4.37-3.36l1.5-3.9c0 .16 1 7.26 1 7.26a4.62 4.62 0 0 0 4.4-3.23l3.4-8.26z" fill="#D84000" fill-rule="nonzero"/>
    </g>
</svg>
