<svg width="20" height="20" viewBox="0 0 20 20" xmlns="http://www.w3.org/2000/svg">
    <path d="M9 11v3c0 .283.096.52.287.713.192.191.43.287.713.287s.52-.096.713-.287A.968.968 0 0 0 11 14v-3h3c.283 0 .52-.096.713-.287A.968.968 0 0 0 15 10a.968.968 0 0 0-.287-.713A.968.968 0 0 0 14 9h-3V6a.968.968 0 0 0-.287-.713A.968.968 0 0 0 10 5a.968.968 0 0 0-.713.287A.968.968 0 0 0 9 6v3H6a.968.968 0 0 0-.713.287A.968.968 0 0 0 5 10c0 .283.096.52.287.713.192.191.43.287.713.287h3zm1 9a9.738 9.738 0 0 1-3.9-.788 10.099 10.099 0 0 1-3.175-2.137c-.9-.9-1.612-1.958-2.137-3.175A9.738 9.738 0 0 1 0 10c0-1.383.263-2.683.787-3.9a10.099 10.099 0 0 1 2.138-3.175c.9-.9 1.958-1.612 3.175-2.137A9.738 9.738 0 0 1 10 0c1.383 0 2.683.263 3.9.787a10.099 10.099 0 0 1 3.175 2.138c.9.9 1.613 1.958 2.137 3.175A9.738 9.738 0 0 1 20 10a9.738 9.738 0 0 1-.788 3.9 10.099 10.099 0 0 1-2.137 3.175c-.9.9-1.958 1.613-3.175 2.137A9.738 9.738 0 0 1 10 20z" fill="#D84000" fill-rule="nonzero"/>
</svg>
