<svg width="20" height="20" viewBox="0 0 20 20" xmlns="http://www.w3.org/2000/svg">
    <g fill="none" fill-rule="evenodd">
        <path d="M0 0h20v20H0z"/>
        <path d="m15.326 15.716-1.942 1.995a.955.955 0 0 1-.715.289.955.955 0 0 1-.715-.289 1.01 1.01 0 0 1-.28-.735c0-.297.093-.542.28-.735l1.941-1.995-1.941-1.995a1.01 1.01 0 0 1-.28-.735c0-.297.093-.542.28-.735a.955.955 0 0 1 .715-.289c.29 0 .528.097.715.29l1.942 1.994 1.94-1.995a.955.955 0 0 1 .716-.289c.29 0 .528.097.715.29.188.192.281.437.281.734 0 .298-.093.543-.28.735l-1.942 1.995 1.941 1.995c.188.193.281.438.281.735 0 .298-.093.543-.28.735a.955.955 0 0 1-.716.289.955.955 0 0 1-.715-.289l-1.941-1.995zm-.664-9.686 3.627-3.728a.923.923 0 0 1 .715-.301c.272.008.51.118.715.328.187.21.281.455.281.735 0 .28-.094.525-.281.735L15.402 8.26a.968.968 0 0 1-1.43 0l-2.197-2.257a1.01 1.01 0 0 1-.28-.735c0-.298.093-.543.28-.735a.955.955 0 0 1 .715-.29c.29 0 .528.097.716.29l1.456 1.496zm-13.64 7.166h7.152c.29 0 .532.1.728.302.195.201.293.45.293.748s-.098.547-.293.748a.975.975 0 0 1-.728.302H1.022c-.29 0-.532-.1-.728-.302A1.03 1.03 0 0 1 0 14.246c0-.297.098-.547.294-.748a.975.975 0 0 1 .728-.302zm0-8.4h7.152c.29 0 .532.1.728.302.195.201.293.45.293.748s-.098.547-.293.748a.975.975 0 0 1-.728.302H1.022c-.29 0-.532-.1-.728-.302A1.03 1.03 0 0 1 0 5.846c0-.297.098-.547.294-.748a.975.975 0 0 1 .728-.302z" fill="#0D3443" fill-rule="nonzero"/>
    </g>
</svg>
