<svg width="65" height="24" viewBox="0 0 65 24" xmlns="http://www.w3.org/2000/svg">
    <g fill="none" fill-rule="evenodd">
        <path d="M0 0h65v24H0z"/>
        <path d="M10.256 10v2.55H4.34V19H1.267v-9h8.989zM1.267 7.47V4.455h9.625V7.47H1.267zM15.932 4.455V19h-3.023V4.455zM23.795 23.09v-15h2.983v1.836h.131c.134-.297.328-.598.581-.903.253-.304.584-.56.994-.765.41-.206.92-.31 1.527-.31.8 0 1.535.208 2.206.622.67.413 1.207 1.036 1.61 1.867.403.832.605 1.872.605 3.12 0 1.218-.196 2.244-.588 3.08-.391.835-.922 1.467-1.59 1.896a4.076 4.076 0 0 1-2.248.643c-.588 0-1.085-.097-1.494-.292a3.078 3.078 0 0 1-1.003-.734 3.768 3.768 0 0 1-.6-.894h-.09v5.835h-3.024zm2.96-9.545c0 .648.09 1.213.271 1.696.18.482.441.857.781 1.125.34.267.754.401 1.238.401.497 0 .915-.136 1.255-.408.34-.273.6-.65.776-1.135.177-.485.265-1.044.265-1.679 0-.63-.088-1.185-.262-1.664-.175-.478-.433-.852-.773-1.12-.34-.269-.76-.403-1.26-.403-.49 0-.904.13-1.244.391-.34.261-.6.63-.779 1.107-.178.477-.267 1.04-.267 1.69z" fill="#FFF" fill-rule="nonzero"/>
        <g fill-rule="nonzero">
            <path fill="#FFF" d="M18.352 19v-9h3.023v9z"/>
            <path fill="#D84000" d="M18.352 7.47V4.45h3.023v3.02z"/>
        </g>
        <g fill-rule="nonzero">
            <path fill="#FFF" d="M36.45 19v-9h3.023v9z"/>
            <path fill="#D84000" d="M36.45 7.47V4.45h3.023v3.02z"/>
        </g>
        <path d="M46.812 19.21c-1.119 0-2.08-.238-2.88-.714a4.76 4.76 0 0 1-1.845-1.983c-.43-.846-.644-1.822-.644-2.928 0-1.113.217-2.094.65-2.94a4.797 4.797 0 0 1 1.852-1.984c.8-.475 1.752-.712 2.856-.712.949 0 1.781.172 2.498.518.716.345 1.282.83 1.698 1.457.416.626.644 1.36.685 2.201h-2.853c-.082-.543-.294-.981-.635-1.316-.342-.335-.79-.502-1.348-.502-.465 0-.873.126-1.223.38-.349.253-.62.621-.815 1.103-.194.483-.291 1.068-.291 1.755 0 .696.096 1.287.288 1.774.193.487.463.859.813 1.115.35.256.759.384 1.228.384.348 0 .66-.07.935-.212.276-.142.505-.348.687-.62.182-.27.303-.6.361-.986h2.853c-.047.834-.272 1.568-.676 2.201a4.105 4.105 0 0 1-1.673 1.48c-.71.353-1.55.53-2.52.53zM58.557 19.21c-1.104 0-2.058-.235-2.86-.705a4.77 4.77 0 0 1-1.856-1.972c-.436-.844-.654-1.827-.654-2.948 0-1.125.218-2.11.654-2.956a4.766 4.766 0 0 1 1.856-1.975c.802-.47 1.756-.705 2.86-.705 1.104 0 2.057.235 2.86.705a4.766 4.766 0 0 1 1.856 1.975c.435.846.653 1.831.653 2.956 0 1.121-.218 2.104-.653 2.948a4.77 4.77 0 0 1-1.857 1.972c-.802.47-1.755.705-2.86.705zm.017-2.34c.498 0 .916-.144 1.254-.431.338-.287.593-.68.766-1.176.172-.497.258-1.062.258-1.695 0-.635-.086-1.202-.258-1.7-.173-.497-.428-.89-.766-1.18-.338-.288-.756-.432-1.254-.432-.51 0-.936.144-1.28.433-.344.289-.602.682-.774 1.18-.173.497-.259 1.064-.259 1.7 0 .632.086 1.197.259 1.694.172.497.43.889.774 1.176.344.287.77.43 1.28.43z" fill="#FFF" fill-rule="nonzero"/>
    </g>
</svg>
