<svg width="130" height="24" viewBox="0 0 130 24" xmlns="http://www.w3.org/2000/svg">
    <g fill="none" fill-rule="evenodd">
        <path d="M0 0h130v24H0z"/>
        <path d="M85.7 19.044V4.5h3.08v12.003h6.242v2.54H85.7zm14.314.2c-.7 0-1.32-.12-1.86-.36-.541-.24-.981-.6-1.281-1.08-.32-.48-.48-1.081-.48-1.801 0-.62.1-1.12.32-1.54.24-.4.54-.74.92-.98.38-.26.82-.44 1.3-.58.5-.12 1.02-.221 1.56-.261.62-.08 1.141-.14 1.521-.2.4-.06.68-.14.86-.26.16-.12.26-.3.26-.52v-.04c0-.46-.14-.8-.42-1.06-.3-.24-.68-.36-1.2-.36-.54 0-.98.12-1.3.36-.32.24-.54.54-.64.9l-2.801-.24c.14-.66.42-1.22.84-1.72.42-.48.96-.861 1.62-1.121.66-.26 1.42-.4 2.28-.4.621 0 1.201.08 1.761.22.56.14 1.04.36 1.48.66.42.3.78.68 1.021 1.14.26.48.38 1.04.38 1.68v7.363h-2.86v-1.52h-.1c-.18.34-.4.64-.7.9-.28.26-.641.46-1.061.6-.4.16-.88.22-1.42.22zm.86-2.08c.46 0 .84-.08 1.18-.26.34-.181.62-.421.8-.741.2-.3.3-.64.3-1.02v-1.16c-.1.06-.22.12-.38.16-.18.06-.36.1-.56.14-.2.04-.4.08-.6.1-.22.04-.4.06-.56.1-.36.04-.66.12-.94.24-.26.12-.46.26-.62.46-.14.2-.22.42-.22.72 0 .4.16.72.46.94.3.22.68.32 1.14.32zm7.36 1.88V4.5h3.02v5.461h.1c.14-.3.32-.6.58-.9.26-.3.581-.56 1.001-.76.4-.2.92-.32 1.52-.32.8 0 1.54.22 2.201.62.68.42 1.22 1.04 1.62 1.88.4.82.6 1.86.6 3.121 0 1.22-.2 2.24-.58 3.081-.4.84-.92 1.46-1.6 1.9-.66.42-1.42.64-2.24.64-.58 0-1.08-.1-1.5-.3-.401-.2-.741-.44-1.001-.74-.26-.28-.46-.58-.6-.88h-.14v1.74h-2.981zm2.96-5.462c0 .66.1 1.22.28 1.7.18.48.44.86.78 1.121.341.28.761.4 1.241.4.5 0 .92-.12 1.26-.4.34-.28.6-.66.76-1.14.18-.48.28-1.04.28-1.68 0-.62-.1-1.181-.26-1.661-.18-.48-.44-.86-.78-1.12-.34-.26-.76-.4-1.26-.4s-.9.12-1.24.38c-.34.28-.6.64-.78 1.12-.18.48-.28 1.04-.28 1.68zm18.48-2.34-2.76.16c-.06-.22-.16-.44-.3-.62-.16-.2-.36-.36-.62-.48-.26-.1-.56-.16-.92-.16-.461 0-.861.1-1.181.3-.32.18-.48.44-.48.78 0 .26.1.48.32.66.2.18.56.32 1.06.42l1.98.4c1.06.22 1.861.58 2.381 1.06.52.48.78 1.12.78 1.9 0 .72-.22 1.341-.64 1.881-.42.54-.98.96-1.72 1.26-.72.3-1.56.46-2.5.46-1.441 0-2.602-.32-3.462-.92-.86-.6-1.34-1.42-1.5-2.46l2.98-.16c.1.44.3.78.66 1 .34.24.781.36 1.321.36.54 0 .96-.1 1.28-.32.32-.2.5-.46.5-.8 0-.28-.12-.5-.34-.68-.24-.18-.58-.3-1.06-.4l-1.88-.38c-1.08-.22-1.86-.58-2.38-1.1-.521-.54-.781-1.201-.781-2.021 0-.7.18-1.3.56-1.8.38-.52.92-.901 1.62-1.181.7-.28 1.5-.42 2.441-.42 1.38 0 2.46.3 3.26.88.781.58 1.261 1.38 1.381 2.38z" fill="#FFF" fill-rule="nonzero"/>
        <path d="m75.908 18.998-3.65-11.224h-.113l-3.65 11.224H65.2L70.218 4.45h3.966l5.018 14.545V4.45h3.075v14.548h-6.37z" fill="#D84000" fill-rule="nonzero"/>
        <g fill-rule="nonzero">
            <path d="M8.989 10v2.55H3.074V19H0v-9h8.989zM0 7.47V4.455h9.625V7.47H0zM14.665 4.455V19h-3.023V4.455zM22.528 23.091v-15h2.983v1.835h.131c.134-.297.328-.598.581-.903.253-.304.584-.559.994-.765.41-.206.919-.309 1.527-.309.799 0 1.535.207 2.206.621.67.413 1.207 1.036 1.61 1.867.403.832.605 1.872.605 3.12 0 1.218-.196 2.244-.588 3.079-.391.836-.922 1.468-1.591 1.897a4.074 4.074 0 0 1-2.247.643c-.588 0-1.085-.097-1.494-.292a3.066 3.066 0 0 1-1.003-.734 3.765 3.765 0 0 1-.6-.894h-.091v5.835h-3.023zm2.961-9.546c0 .648.09 1.213.27 1.696.181.482.441.857.781 1.125.341.267.754.401 1.238.401.497 0 .915-.136 1.255-.408.341-.273.599-.651.776-1.135.177-.485.265-1.044.265-1.679 0-.63-.088-1.185-.262-1.664-.175-.478-.433-.852-.773-1.12-.34-.269-.761-.403-1.261-.403-.488 0-.903.13-1.243.391-.341.261-.6.63-.779 1.107-.178.477-.267 1.04-.267 1.689zM17.085 19v-9h3.023v9z" fill="#FFF"/>
            <path fill="#D84000" d="M17.085 7.47V4.45h3.023v3.02z"/>
            <path fill="#FFF" d="M35.183 19v-9h3.023v9z"/>
            <path fill="#D84000" d="M35.183 7.47V4.45h3.023v3.02z"/>
            <g fill="#FFF">
                <path d="M45.545 19.21c-1.119 0-2.079-.238-2.88-.714a4.75 4.75 0 0 1-1.845-1.983c-.429-.846-.644-1.822-.644-2.928 0-1.113.217-2.094.651-2.941a4.79 4.79 0 0 1 1.851-1.983c.8-.475 1.752-.712 2.856-.712.949 0 1.781.172 2.498.518a4.16 4.16 0 0 1 1.698 1.457c.416.626.644 1.36.685 2.201h-2.853c-.082-.543-.294-.981-.635-1.316-.342-.335-.791-.502-1.348-.502-.465 0-.873.126-1.223.38-.349.253-.621.621-.815 1.103-.194.483-.291 1.068-.291 1.755 0 .696.096 1.287.288 1.774.193.487.463.859.813 1.115.349.256.759.384 1.228.384.348 0 .66-.071.935-.212.276-.142.505-.348.687-.619a2.39 2.39 0 0 0 .361-.987h2.853c-.047.834-.272 1.568-.676 2.201a4.106 4.106 0 0 1-1.673 1.479c-.711.354-1.551.53-2.521.53z"/>
            </g>
            <g fill="#FFF">
                <path d="M57.29 19.21c-1.104 0-2.058-.235-2.86-.705a4.76 4.76 0 0 1-1.856-1.972c-.436-.844-.654-1.827-.654-2.948 0-1.125.218-2.11.654-2.956a4.757 4.757 0 0 1 1.856-1.975c.802-.47 1.756-.705 2.86-.705 1.104 0 2.057.235 2.859.705a4.765 4.765 0 0 1 1.857 1.975c.435.846.653 1.831.653 2.956 0 1.121-.218 2.104-.653 2.948a4.77 4.77 0 0 1-1.857 1.972c-.802.47-1.755.705-2.859.705zm.017-2.341c.498 0 .916-.143 1.254-.43.338-.287.593-.679.766-1.176.172-.497.258-1.062.258-1.695 0-.635-.086-1.202-.258-1.699-.173-.498-.428-.891-.766-1.18-.338-.289-.756-.433-1.254-.433-.51 0-.936.144-1.28.433-.344.289-.602.682-.774 1.18-.173.497-.259 1.064-.259 1.699 0 .633.086 1.198.259 1.695.172.497.43.889.774 1.176.344.287.77.43 1.28.43z"/>
            </g>
        </g>
    </g>
</svg>
