<svg width="20" height="20" viewBox="0 0 20 20" xmlns="http://www.w3.org/2000/svg">
    <g fill="none" fill-rule="evenodd">
        <path d="M0 0h20v20H0z"/>
        <path d="m9.993 11.344 5.085-5.008c.227-.224.49-.336.79-.336.3 0 .564.112.79.336.228.224.342.483.342.779 0 .295-.114.554-.341.778l-5.891 5.802a1.016 1.016 0 0 1-.357.229 1.172 1.172 0 0 1-.837 0 1.016 1.016 0 0 1-.357-.23l-5.89-5.8A1.008 1.008 0 0 1 3 7.113c.01-.295.129-.554.356-.778.228-.224.491-.336.79-.336.3 0 .564.112.792.336l5.054 5.008z" fill="#FFF" fill-rule="nonzero"/>
    </g>
</svg>
