<svg width="30" height="30" viewBox="0 0 30 30" xmlns="http://www.w3.org/2000/svg">
    <g fill="none" fill-rule="evenodd">
        <path d="M0 0h30v30H0z"/>
        <path d="M15 27c-.292 0-.583-.052-.875-.155a2.303 2.303 0 0 1-.781-.466 48.724 48.724 0 0 1-3.594-3.633c-1.042-1.18-1.911-2.323-2.61-3.43-.697-1.108-1.229-2.174-1.593-3.198C5.182 15.093 5 14.115 5 13.184c0-3.105 1.005-5.579 3.016-7.42C10.026 3.92 12.354 3 15 3s4.974.921 6.984 2.763C23.994 7.605 25 10.08 25 13.183c0 .932-.182 1.91-.547 2.935-.364 1.024-.896 2.09-1.594 3.198-.698 1.107-1.567 2.25-2.609 3.43a48.724 48.724 0 0 1-3.594 3.633c-.229.207-.49.362-.781.466A2.602 2.602 0 0 1 15 27zm0-11.58c.688 0 1.276-.244 1.766-.73.49-.487.734-1.072.734-1.755 0-.683-.245-1.267-.734-1.754a2.415 2.415 0 0 0-1.766-.73c-.688 0-1.276.244-1.766.73a2.384 2.384 0 0 0-.734 1.754c0 .683.245 1.268.734 1.755.49.486 1.079.73 1.766.73z" fill="#D84000" fill-rule="nonzero"/>
    </g>
</svg>
