<svg width="125" height="25" viewBox="0 0 125 25" xmlns="http://www.w3.org/2000/svg">
    <g fill="none" fill-rule="evenodd">
        <path d="M0 0h25v25H0z"/>
        <path d="m12.502 18.372-4.339 2.734a.94.94 0 0 1-.569.14.92.92 0 0 1-.49-.195 1.006 1.006 0 0 1-.317-.46.995.995 0 0 1-.026-.6l1.138-5.107-3.837-3.432a.922.922 0 0 1-.29-.517 1.251 1.251 0 0 1 .026-.572.925.925 0 0 1 .29-.46.913.913 0 0 1 .53-.21l5.027-.474 1.984-4.855a.998.998 0 0 1 .37-.46.913.913 0 0 1 .503-.154c.177 0 .344.051.503.153a.998.998 0 0 1 .37.46l1.985 4.884 5.027.447a.868.868 0 0 1 .529.223c.14.13.238.288.29.474.054.186.058.372.014.558a1 1 0 0 1-.304.503l-3.81 3.432 1.137 5.106a.995.995 0 0 1-.026.6c-.07.196-.176.35-.317.46a.92.92 0 0 1-.49.196.94.94 0 0 1-.569-.14l-4.339-2.734z" fill="#D84000" fill-rule="nonzero"/>
        <path d="M25 0h25v25H25z"/>
        <path d="m37.502 18.372-4.339 2.734a.94.94 0 0 1-.569.14.92.92 0 0 1-.49-.195 1.006 1.006 0 0 1-.317-.46.995.995 0 0 1-.026-.6l1.138-5.107-3.837-3.432a.922.922 0 0 1-.29-.517 1.251 1.251 0 0 1 .026-.572.925.925 0 0 1 .29-.46.913.913 0 0 1 .53-.21l5.027-.474 1.984-4.855a.998.998 0 0 1 .37-.46.913.913 0 0 1 .503-.154c.177 0 .344.051.503.153a.998.998 0 0 1 .37.46l1.985 4.884 5.027.447a.868.868 0 0 1 .529.223c.14.13.238.288.29.474.054.186.058.372.014.558a1 1 0 0 1-.304.503l-3.81 3.432 1.137 5.106a.995.995 0 0 1-.026.6c-.07.196-.176.35-.317.46a.92.92 0 0 1-.49.196.94.94 0 0 1-.569-.14l-4.339-2.734z" fill="#D84000" fill-rule="nonzero"/>
        <path d="M50 0h25v25H50z"/>
        <path d="m62.502 18.372-4.339 2.734a.94.94 0 0 1-.569.14.92.92 0 0 1-.49-.195 1.006 1.006 0 0 1-.317-.46.995.995 0 0 1-.026-.6l1.138-5.107-3.837-3.432a.922.922 0 0 1-.29-.517 1.251 1.251 0 0 1 .026-.572.925.925 0 0 1 .29-.46.913.913 0 0 1 .53-.21l5.027-.474 1.984-4.855a.998.998 0 0 1 .37-.46.913.913 0 0 1 .503-.154c.177 0 .344.051.503.153a.998.998 0 0 1 .37.46l1.985 4.884 5.027.447a.868.868 0 0 1 .529.223c.14.13.238.288.29.474.054.186.058.372.014.558a1 1 0 0 1-.304.503l-3.81 3.432 1.137 5.106a.995.995 0 0 1-.026.6c-.07.196-.176.35-.317.46a.92.92 0 0 1-.49.196.94.94 0 0 1-.569-.14l-4.339-2.734z" fill="#D84000" fill-rule="nonzero"/>
        <g>
            <path d="M75 0h25v25H75z"/>
            <path d="m87.502 18.372-4.339 2.734a.94.94 0 0 1-.569.14.92.92 0 0 1-.49-.195 1.006 1.006 0 0 1-.317-.46.995.995 0 0 1-.026-.6l1.138-5.107-3.837-3.432a.922.922 0 0 1-.29-.517 1.251 1.251 0 0 1 .026-.572.925.925 0 0 1 .29-.46.913.913 0 0 1 .53-.21l5.027-.474 1.984-4.855a.998.998 0 0 1 .37-.46.913.913 0 0 1 .503-.154c.177 0 .344.051.503.153a.998.998 0 0 1 .37.46l1.985 4.884 5.027.447a.868.868 0 0 1 .529.223c.14.13.238.288.29.474.054.186.058.372.014.558a1 1 0 0 1-.304.503l-3.81 3.432 1.137 5.106a.995.995 0 0 1-.026.6c-.07.196-.176.35-.317.46a.92.92 0 0 1-.49.196.94.94 0 0 1-.569-.14l-4.339-2.734z" fill="#D84000" fill-rule="nonzero"/>
        </g>
        <g>
            <path d="M100 0h25v25h-25z"/>
            <path d="m112.502 18.372-4.339 2.734a.94.94 0 0 1-.569.14.92.92 0 0 1-.49-.195 1.006 1.006 0 0 1-.317-.46.995.995 0 0 1-.026-.6l1.138-5.107-3.837-3.432a.922.922 0 0 1-.29-.517 1.251 1.251 0 0 1 .026-.572.925.925 0 0 1 .29-.46.913.913 0 0 1 .53-.21l5.027-.474 1.984-4.855a.998.998 0 0 1 .37-.46.913.913 0 0 1 .503-.154c.177 0 .344.051.503.153a.998.998 0 0 1 .37.46l1.985 4.884 5.027.447a.868.868 0 0 1 .529.223c.14.13.238.288.29.474.054.186.058.372.014.558a1 1 0 0 1-.304.503l-3.81 3.432 1.137 5.106a.995.995 0 0 1-.026.6c-.07.196-.176.35-.317.46a.92.92 0 0 1-.49.196.94.94 0 0 1-.569-.14l-4.339-2.734z" fill="#D84000" fill-rule="nonzero"/>
        </g>
    </g>
</svg>
