<svg width="30" height="30" viewBox="0 0 30 30" xmlns="http://www.w3.org/2000/svg">
    <g fill-rule="nonzero" fill="none">
        <circle fill="#97A9AB" cx="15" cy="15" r="15"/>
        <path d="M11.53 9.203c.54 0 1.032.051 1.477.152.445.1.825.266 1.142.495.317.23.563.535.738.917.175.38.262.851.262 1.412 0 .604-.13 1.109-.39 1.512-.258.404-.642.734-1.15.992.699.212 1.22.585 1.564 1.117.344.532.516 1.174.516 1.925 0 .604-.111 1.129-.333 1.572a3.004 3.004 0 0 1-.897 1.083c-.376.28-.804.487-1.285.622a5.495 5.495 0 0 1-1.483.201H6.2v-12h5.33zm-.316 4.857c.444 0 .809-.113 1.095-.336.286-.225.429-.588.428-1.092 0-.28-.048-.51-.143-.689a1.091 1.091 0 0 0-.381-.42c-.16-.1-.341-.17-.547-.21a3.443 3.443 0 0 0-.643-.058H8.692v2.807l2.522-.002zm.143 5.091c.235.002.469-.024.698-.075.222-.05.418-.134.587-.252.169-.117.304-.277.405-.479.1-.2.15-.46.15-.773 0-.615-.163-1.056-.491-1.319-.328-.263-.762-.395-1.301-.395H8.692v3.295l2.665-.002zm7.465-.252c.338.348.825.521 1.46.521.455 0 .846-.12 1.174-.36.328-.241.53-.496.603-.765h1.983c-.317 1.042-.804 1.786-1.46 2.235-.656.448-1.449.672-2.38.672-.645 0-1.227-.109-1.745-.327a3.625 3.625 0 0 1-1.317-.933 4.23 4.23 0 0 1-.833-1.445 5.593 5.593 0 0 1-.293-1.848c0-.65.1-1.255.301-1.815.201-.56.487-1.044.857-1.453.37-.41.812-.731 1.325-.966a4.047 4.047 0 0 1 1.706-.353c.698 0 1.306.143 1.825.429.518.286.944.67 1.277 1.151.333.482.574 1.031.722 1.648a6.5 6.5 0 0 1 .16 1.933h-5.919c.031.77.216 1.33.554 1.676zm2.547-4.57c-.27-.314-.68-.47-1.23-.47-.36 0-.659.064-.896.192a1.73 1.73 0 0 0-.872 1.084 2.86 2.86 0 0 0-.103.57h3.665c-.107-.603-.295-1.063-.564-1.376zm-3.487-4.517h4.58v1.345h-4.58V9.812z" fill="#000"/>
    </g>
</svg>
