<svg width="30" height="30" viewBox="0 0 30 30" xmlns="http://www.w3.org/2000/svg">
    <path d="M0 15c0-2.72.67-5.23 2.01-7.53 1.34-2.3 3.16-4.12 5.46-5.46C9.77.67 12.28 0 15 0c2.72 0 5.23.67 7.53 2.01 2.3 1.34 4.12 3.16 5.46 5.46C29.33 9.77 30 12.28 30 15c0 2.72-.67 5.23-2.01 7.53-1.34 2.3-3.16 4.12-5.46 5.46C20.23 29.33 17.72 30 15 30c-2.72 0-5.23-.67-7.53-2.01-2.3-1.34-4.12-3.16-5.46-5.46C.67 20.23 0 17.72 0 15zm2.49 0c0 3.12 1.05 5.87 3.15 8.25.96-1.88 2.48-3.67 4.56-5.37 2.08-1.7 4.11-2.77 6.09-3.21-.3-.7-.59-1.33-.87-1.89-3.44 1.1-7.16 1.65-11.16 1.65-.78 0-1.36-.01-1.74-.03 0 .08-.005.18-.015.3-.01.12-.015.22-.015.3zm.39-3.09c.44.04 1.09.06 1.95.06 3.34 0 6.51-.45 9.51-1.35-1.52-2.7-3.19-4.95-5.01-6.75-1.58.8-2.935 1.91-4.065 3.33a12.808 12.808 0 0 0-2.385 4.71zm4.47 12.96c2.26 1.76 4.81 2.64 7.65 2.64 1.48 0 2.95-.28 4.41-.84-.4-3.42-1.18-6.73-2.34-9.93-1.84.4-3.695 1.41-5.565 3.03-1.87 1.62-3.255 3.32-4.155 5.1zm4.59-21.96C13.7 4.73 15.33 7 16.83 9.72c2.72-1.14 4.77-2.59 6.15-4.35C20.66 3.45 18 2.49 15 2.49c-1.02 0-2.04.14-3.06.42zm5.97 8.94c.3.64.64 1.45 1.02 2.43 1.48-.14 3.09-.21 4.83-.21 1.24 0 2.47.03 3.69.09-.16-2.72-1.14-5.14-2.94-7.26-1.3 1.94-3.5 3.59-6.6 4.95zm1.77 4.53c1.02 2.96 1.71 6 2.07 9.12 1.58-1.02 2.87-2.33 3.87-3.93s1.6-3.33 1.8-5.19c-1.46-.1-2.79-.15-3.99-.15-1.1 0-2.35.05-3.75.15z" fill="#97A9AB" fill-rule="nonzero"/>
</svg>
