<svg width="30" height="30" viewBox="0 0 30 30" xmlns="http://www.w3.org/2000/svg">
    <path d="M15 0c8.284 0 15 6.716 15 15 0 8.284-6.716 15-15 15-8.284 0-15-6.716-15-15C0 6.716 6.716 0 15 0zm8.428 10.069c-2.25 0-3.431 1.528-4.031 3.15h.01l-1.36 4.284c0-.328-.938-7.434-.938-7.434-2.156 0-3.3 1.528-3.9 3.15l-1.659 4.293v-.046l-.007-.169c-.04-.894-.227-4.04-.227-4.04a3.506 3.506 0 0 0-3.403-3.179l1.762 10.763c2.25 0 3.469-1.529 4.097-3.15l1.406-3.657c0 .07.198 1.512.412 3.05l.076.546c.202 1.454.4 2.86.442 3.154l.008.057a4.331 4.331 0 0 0 4.125-3.029l3.187-7.743z" fill="#97A9AB" fill-rule="nonzero"/>
</svg>
